<?xml version="1.0" encoding="utf-8" standalone="no"?>
<!DOCTYPE svg PUBLIC "-//W3C//DTD SVG 1.1//EN"
  "http://www.w3.org/Graphics/SVG/1.1/DTD/svg11.dtd">
<svg xmlns:xlink="http://www.w3.org/1999/xlink" width="421.01625pt" height="410.14875pt" viewBox="0 0 421.01625 410.14875" xmlns="http://www.w3.org/2000/svg" version="1.1">
 <metadata>
  <rdf:RDF xmlns:dc="http://purl.org/dc/elements/1.1/" xmlns:cc="http://creativecommons.org/ns#" xmlns:rdf="http://www.w3.org/1999/02/22-rdf-syntax-ns#">
   <cc:Work>
    <dc:type rdf:resource="http://purl.org/dc/dcmitype/StillImage"/>
    <dc:date>2025-04-03T17:12:39.050316</dc:date>
    <dc:format>image/svg+xml</dc:format>
    <dc:creator>
     <cc:Agent>
      <dc:title>Matplotlib v3.9.2, https://matplotlib.org/</dc:title>
     </cc:Agent>
    </dc:creator>
   </cc:Work>
  </rdf:RDF>
 </metadata>
 <defs>
  <style type="text/css">*{stroke-linejoin: round; stroke-linecap: butt}</style>
 </defs>
 <g id="figure_1">
  <g id="patch_1">
   <path d="M 0 410.14875 
L 421.01625 410.14875 
L 421.01625 0 
L 0 0 
z
" style="fill: #ffffff"/>
  </g>
  <g id="axes_1">
   <g id="patch_2">
    <path d="M 50.86625 370.15 
L 413.81625 370.15 
L 413.81625 7.2 
L 50.86625 7.2 
z
" style="fill: #ffffff"/>
   </g>
   <g id="PathCollection_1">
    <defs>
     <path id="m26cd8d9e02" d="M 0 1.936492 
C 0.513564 1.936492 1.006162 1.732451 1.369306 1.369306 
C 1.732451 1.006162 1.936492 0.513564 1.936492 0 
C 1.936492 -0.513564 1.732451 -1.006162 1.369306 -1.369306 
C 1.006162 -1.732451 0.513564 -1.936492 0 -1.936492 
C -0.513564 -1.936492 -1.006162 -1.732451 -1.369306 -1.369306 
C -1.732451 -1.006162 -1.936492 -0.513564 -1.936492 0 
C -1.936492 0.513564 -1.732451 1.006162 -1.369306 1.369306 
C -1.006162 1.732451 -0.513564 1.936492 0 1.936492 
z
" style="stroke: #0000ff; stroke-opacity: 0.8"/>
    </defs>
    <g clip-path="url(#peab2152088)">
     <use xlink:href="#m26cd8d9e02" x="247.484242" y="126.625572" style="fill: #0000ff; fill-opacity: 0.8; stroke: #0000ff; stroke-opacity: 0.8"/>
     <use xlink:href="#m26cd8d9e02" x="214.590343" y="290.963656" style="fill: #0000ff; fill-opacity: 0.8; stroke: #0000ff; stroke-opacity: 0.8"/>
     <use xlink:href="#m26cd8d9e02" x="245.651243" y="105.11241" style="fill: #0000ff; fill-opacity: 0.8; stroke: #0000ff; stroke-opacity: 0.8"/>
     <use xlink:href="#m26cd8d9e02" x="204.474584" y="197.933996" style="fill: #0000ff; fill-opacity: 0.8; stroke: #0000ff; stroke-opacity: 0.8"/>
     <use xlink:href="#m26cd8d9e02" x="219.727451" y="81.198863" style="fill: #0000ff; fill-opacity: 0.8; stroke: #0000ff; stroke-opacity: 0.8"/>
     <use xlink:href="#m26cd8d9e02" x="258.053475" y="253.217854" style="fill: #0000ff; fill-opacity: 0.8; stroke: #0000ff; stroke-opacity: 0.8"/>
     <use xlink:href="#m26cd8d9e02" x="236.525139" y="311.723038" style="fill: #0000ff; fill-opacity: 0.8; stroke: #0000ff; stroke-opacity: 0.8"/>
     <use xlink:href="#m26cd8d9e02" x="227.448053" y="229.760646" style="fill: #0000ff; fill-opacity: 0.8; stroke: #0000ff; stroke-opacity: 0.8"/>
     <use xlink:href="#m26cd8d9e02" x="248.09436" y="279.184771" style="fill: #0000ff; fill-opacity: 0.8; stroke: #0000ff; stroke-opacity: 0.8"/>
     <use xlink:href="#m26cd8d9e02" x="227.897799" y="202.006343" style="fill: #0000ff; fill-opacity: 0.8; stroke: #0000ff; stroke-opacity: 0.8"/>
     <use xlink:href="#m26cd8d9e02" x="244.492166" y="88.076538" style="fill: #0000ff; fill-opacity: 0.8; stroke: #0000ff; stroke-opacity: 0.8"/>
     <use xlink:href="#m26cd8d9e02" x="244.100358" y="309.237624" style="fill: #0000ff; fill-opacity: 0.8; stroke: #0000ff; stroke-opacity: 0.8"/>
     <use xlink:href="#m26cd8d9e02" x="237.344715" y="291.144101" style="fill: #0000ff; fill-opacity: 0.8; stroke: #0000ff; stroke-opacity: 0.8"/>
     <use xlink:href="#m26cd8d9e02" x="226.055889" y="319.160673" style="fill: #0000ff; fill-opacity: 0.8; stroke: #0000ff; stroke-opacity: 0.8"/>
     <use xlink:href="#m26cd8d9e02" x="243.905446" y="315.199803" style="fill: #0000ff; fill-opacity: 0.8; stroke: #0000ff; stroke-opacity: 0.8"/>
     <use xlink:href="#m26cd8d9e02" x="231.680306" y="163.839492" style="fill: #0000ff; fill-opacity: 0.8; stroke: #0000ff; stroke-opacity: 0.8"/>
     <use xlink:href="#m26cd8d9e02" x="268.266406" y="226.590235" style="fill: #0000ff; fill-opacity: 0.8; stroke: #0000ff; stroke-opacity: 0.8"/>
     <use xlink:href="#m26cd8d9e02" x="220.87865" y="289.278494" style="fill: #0000ff; fill-opacity: 0.8; stroke: #0000ff; stroke-opacity: 0.8"/>
     <use xlink:href="#m26cd8d9e02" x="255.641958" y="130.615033" style="fill: #0000ff; fill-opacity: 0.8; stroke: #0000ff; stroke-opacity: 0.8"/>
     <use xlink:href="#m26cd8d9e02" x="214.282644" y="226.838014" style="fill: #0000ff; fill-opacity: 0.8; stroke: #0000ff; stroke-opacity: 0.8"/>
     <use xlink:href="#m26cd8d9e02" x="252.33397" y="155.408576" style="fill: #0000ff; fill-opacity: 0.8; stroke: #0000ff; stroke-opacity: 0.8"/>
     <use xlink:href="#m26cd8d9e02" x="222.114261" y="82.232534" style="fill: #0000ff; fill-opacity: 0.8; stroke: #0000ff; stroke-opacity: 0.8"/>
     <use xlink:href="#m26cd8d9e02" x="234.773002" y="77.932959" style="fill: #0000ff; fill-opacity: 0.8; stroke: #0000ff; stroke-opacity: 0.8"/>
     <use xlink:href="#m26cd8d9e02" x="232.509843" y="213.250017" style="fill: #0000ff; fill-opacity: 0.8; stroke: #0000ff; stroke-opacity: 0.8"/>
     <use xlink:href="#m26cd8d9e02" x="234.155283" y="168.433178" style="fill: #0000ff; fill-opacity: 0.8; stroke: #0000ff; stroke-opacity: 0.8"/>
     <use xlink:href="#m26cd8d9e02" x="264.842625" y="191.297371" style="fill: #0000ff; fill-opacity: 0.8; stroke: #0000ff; stroke-opacity: 0.8"/>
     <use xlink:href="#m26cd8d9e02" x="249.442623" y="78.807863" style="fill: #0000ff; fill-opacity: 0.8; stroke: #0000ff; stroke-opacity: 0.8"/>
     <use xlink:href="#m26cd8d9e02" x="218.035783" y="178.248685" style="fill: #0000ff; fill-opacity: 0.8; stroke: #0000ff; stroke-opacity: 0.8"/>
     <use xlink:href="#m26cd8d9e02" x="237.183774" y="167.745735" style="fill: #0000ff; fill-opacity: 0.8; stroke: #0000ff; stroke-opacity: 0.8"/>
     <use xlink:href="#m26cd8d9e02" x="254.228332" y="119.602908" style="fill: #0000ff; fill-opacity: 0.8; stroke: #0000ff; stroke-opacity: 0.8"/>
     <use xlink:href="#m26cd8d9e02" x="245.451197" y="178.263663" style="fill: #0000ff; fill-opacity: 0.8; stroke: #0000ff; stroke-opacity: 0.8"/>
     <use xlink:href="#m26cd8d9e02" x="209.729338" y="153.103215" style="fill: #0000ff; fill-opacity: 0.8; stroke: #0000ff; stroke-opacity: 0.8"/>
     <use xlink:href="#m26cd8d9e02" x="226.58542" y="312.619651" style="fill: #0000ff; fill-opacity: 0.8; stroke: #0000ff; stroke-opacity: 0.8"/>
     <use xlink:href="#m26cd8d9e02" x="240.689674" y="136.996024" style="fill: #0000ff; fill-opacity: 0.8; stroke: #0000ff; stroke-opacity: 0.8"/>
     <use xlink:href="#m26cd8d9e02" x="209.719994" y="201.80573" style="fill: #0000ff; fill-opacity: 0.8; stroke: #0000ff; stroke-opacity: 0.8"/>
     <use xlink:href="#m26cd8d9e02" x="216.743745" y="187.00653" style="fill: #0000ff; fill-opacity: 0.8; stroke: #0000ff; stroke-opacity: 0.8"/>
     <use xlink:href="#m26cd8d9e02" x="211.161985" y="224.196589" style="fill: #0000ff; fill-opacity: 0.8; stroke: #0000ff; stroke-opacity: 0.8"/>
     <use xlink:href="#m26cd8d9e02" x="213.079815" y="103.072132" style="fill: #0000ff; fill-opacity: 0.8; stroke: #0000ff; stroke-opacity: 0.8"/>
     <use xlink:href="#m26cd8d9e02" x="229.378372" y="79.564696" style="fill: #0000ff; fill-opacity: 0.8; stroke: #0000ff; stroke-opacity: 0.8"/>
     <use xlink:href="#m26cd8d9e02" x="196.48583" y="150.424126" style="fill: #0000ff; fill-opacity: 0.8; stroke: #0000ff; stroke-opacity: 0.8"/>
     <use xlink:href="#m26cd8d9e02" x="235.463232" y="249.658984" style="fill: #0000ff; fill-opacity: 0.8; stroke: #0000ff; stroke-opacity: 0.8"/>
     <use xlink:href="#m26cd8d9e02" x="228.57492" y="212.11292" style="fill: #0000ff; fill-opacity: 0.8; stroke: #0000ff; stroke-opacity: 0.8"/>
     <use xlink:href="#m26cd8d9e02" x="246.849067" y="144.164711" style="fill: #0000ff; fill-opacity: 0.8; stroke: #0000ff; stroke-opacity: 0.8"/>
     <use xlink:href="#m26cd8d9e02" x="240.737351" y="127.54767" style="fill: #0000ff; fill-opacity: 0.8; stroke: #0000ff; stroke-opacity: 0.8"/>
     <use xlink:href="#m26cd8d9e02" x="229.856235" y="86.301508" style="fill: #0000ff; fill-opacity: 0.8; stroke: #0000ff; stroke-opacity: 0.8"/>
     <use xlink:href="#m26cd8d9e02" x="224.079967" y="249.611373" style="fill: #0000ff; fill-opacity: 0.8; stroke: #0000ff; stroke-opacity: 0.8"/>
     <use xlink:href="#m26cd8d9e02" x="212.989031" y="122.153633" style="fill: #0000ff; fill-opacity: 0.8; stroke: #0000ff; stroke-opacity: 0.8"/>
     <use xlink:href="#m26cd8d9e02" x="228.730661" y="295.058281" style="fill: #0000ff; fill-opacity: 0.8; stroke: #0000ff; stroke-opacity: 0.8"/>
     <use xlink:href="#m26cd8d9e02" x="215.945838" y="263.516138" style="fill: #0000ff; fill-opacity: 0.8; stroke: #0000ff; stroke-opacity: 0.8"/>
     <use xlink:href="#m26cd8d9e02" x="220.988977" y="127.076289" style="fill: #0000ff; fill-opacity: 0.8; stroke: #0000ff; stroke-opacity: 0.8"/>
     <use xlink:href="#m26cd8d9e02" x="251.025153" y="136.220534" style="fill: #0000ff; fill-opacity: 0.8; stroke: #0000ff; stroke-opacity: 0.8"/>
     <use xlink:href="#m26cd8d9e02" x="233.465266" y="309.940853" style="fill: #0000ff; fill-opacity: 0.8; stroke: #0000ff; stroke-opacity: 0.8"/>
     <use xlink:href="#m26cd8d9e02" x="227.707288" y="282.447695" style="fill: #0000ff; fill-opacity: 0.8; stroke: #0000ff; stroke-opacity: 0.8"/>
     <use xlink:href="#m26cd8d9e02" x="240.264362" y="273.889768" style="fill: #0000ff; fill-opacity: 0.8; stroke: #0000ff; stroke-opacity: 0.8"/>
     <use xlink:href="#m26cd8d9e02" x="219.517791" y="123.730299" style="fill: #0000ff; fill-opacity: 0.8; stroke: #0000ff; stroke-opacity: 0.8"/>
     <use xlink:href="#m26cd8d9e02" x="209.63746" y="138.182712" style="fill: #0000ff; fill-opacity: 0.8; stroke: #0000ff; stroke-opacity: 0.8"/>
     <use xlink:href="#m26cd8d9e02" x="214.015114" y="239.284042" style="fill: #0000ff; fill-opacity: 0.8; stroke: #0000ff; stroke-opacity: 0.8"/>
     <use xlink:href="#m26cd8d9e02" x="204.958152" y="226.654936" style="fill: #0000ff; fill-opacity: 0.8; stroke: #0000ff; stroke-opacity: 0.8"/>
     <use xlink:href="#m26cd8d9e02" x="217.861622" y="147.400166" style="fill: #0000ff; fill-opacity: 0.8; stroke: #0000ff; stroke-opacity: 0.8"/>
     <use xlink:href="#m26cd8d9e02" x="221.297814" y="95.033718" style="fill: #0000ff; fill-opacity: 0.8; stroke: #0000ff; stroke-opacity: 0.8"/>
     <use xlink:href="#m26cd8d9e02" x="250.611708" y="240.56229" style="fill: #0000ff; fill-opacity: 0.8; stroke: #0000ff; stroke-opacity: 0.8"/>
     <use xlink:href="#m26cd8d9e02" x="235.138666" y="232.286043" style="fill: #0000ff; fill-opacity: 0.8; stroke: #0000ff; stroke-opacity: 0.8"/>
     <use xlink:href="#m26cd8d9e02" x="255.277561" y="293.871585" style="fill: #0000ff; fill-opacity: 0.8; stroke: #0000ff; stroke-opacity: 0.8"/>
     <use xlink:href="#m26cd8d9e02" x="237.229878" y="186.43606" style="fill: #0000ff; fill-opacity: 0.8; stroke: #0000ff; stroke-opacity: 0.8"/>
     <use xlink:href="#m26cd8d9e02" x="262.581209" y="154.546454" style="fill: #0000ff; fill-opacity: 0.8; stroke: #0000ff; stroke-opacity: 0.8"/>
     <use xlink:href="#m26cd8d9e02" x="243.586731" y="116.443243" style="fill: #0000ff; fill-opacity: 0.8; stroke: #0000ff; stroke-opacity: 0.8"/>
     <use xlink:href="#m26cd8d9e02" x="248.945449" y="255.027815" style="fill: #0000ff; fill-opacity: 0.8; stroke: #0000ff; stroke-opacity: 0.8"/>
     <use xlink:href="#m26cd8d9e02" x="233.212731" y="263.556634" style="fill: #0000ff; fill-opacity: 0.8; stroke: #0000ff; stroke-opacity: 0.8"/>
     <use xlink:href="#m26cd8d9e02" x="240.904979" y="153.119659" style="fill: #0000ff; fill-opacity: 0.8; stroke: #0000ff; stroke-opacity: 0.8"/>
     <use xlink:href="#m26cd8d9e02" x="247.055932" y="250.021288" style="fill: #0000ff; fill-opacity: 0.8; stroke: #0000ff; stroke-opacity: 0.8"/>
     <use xlink:href="#m26cd8d9e02" x="236.32522" y="187.78595" style="fill: #0000ff; fill-opacity: 0.8; stroke: #0000ff; stroke-opacity: 0.8"/>
     <use xlink:href="#m26cd8d9e02" x="249.142697" y="208.671223" style="fill: #0000ff; fill-opacity: 0.8; stroke: #0000ff; stroke-opacity: 0.8"/>
     <use xlink:href="#m26cd8d9e02" x="197.028511" y="199.348961" style="fill: #0000ff; fill-opacity: 0.8; stroke: #0000ff; stroke-opacity: 0.8"/>
     <use xlink:href="#m26cd8d9e02" x="214.666714" y="297.868807" style="fill: #0000ff; fill-opacity: 0.8; stroke: #0000ff; stroke-opacity: 0.8"/>
     <use xlink:href="#m26cd8d9e02" x="226.915081" y="62.678101" style="fill: #0000ff; fill-opacity: 0.8; stroke: #0000ff; stroke-opacity: 0.8"/>
     <use xlink:href="#m26cd8d9e02" x="269.33918" y="218.221528" style="fill: #0000ff; fill-opacity: 0.8; stroke: #0000ff; stroke-opacity: 0.8"/>
     <use xlink:href="#m26cd8d9e02" x="226.3256" y="272.736564" style="fill: #0000ff; fill-opacity: 0.8; stroke: #0000ff; stroke-opacity: 0.8"/>
     <use xlink:href="#m26cd8d9e02" x="215.470216" y="74.521727" style="fill: #0000ff; fill-opacity: 0.8; stroke: #0000ff; stroke-opacity: 0.8"/>
     <use xlink:href="#m26cd8d9e02" x="270.4013" y="220.774073" style="fill: #0000ff; fill-opacity: 0.8; stroke: #0000ff; stroke-opacity: 0.8"/>
     <use xlink:href="#m26cd8d9e02" x="257.70398" y="230.75561" style="fill: #0000ff; fill-opacity: 0.8; stroke: #0000ff; stroke-opacity: 0.8"/>
     <use xlink:href="#m26cd8d9e02" x="205.167154" y="273.512781" style="fill: #0000ff; fill-opacity: 0.8; stroke: #0000ff; stroke-opacity: 0.8"/>
     <use xlink:href="#m26cd8d9e02" x="242.284464" y="285.704552" style="fill: #0000ff; fill-opacity: 0.8; stroke: #0000ff; stroke-opacity: 0.8"/>
     <use xlink:href="#m26cd8d9e02" x="269.152374" y="195.074134" style="fill: #0000ff; fill-opacity: 0.8; stroke: #0000ff; stroke-opacity: 0.8"/>
     <use xlink:href="#m26cd8d9e02" x="256.213876" y="227.220226" style="fill: #0000ff; fill-opacity: 0.8; stroke: #0000ff; stroke-opacity: 0.8"/>
     <use xlink:href="#m26cd8d9e02" x="196.88701" y="211.525986" style="fill: #0000ff; fill-opacity: 0.8; stroke: #0000ff; stroke-opacity: 0.8"/>
     <use xlink:href="#m26cd8d9e02" x="206.782414" y="109.778642" style="fill: #0000ff; fill-opacity: 0.8; stroke: #0000ff; stroke-opacity: 0.8"/>
     <use xlink:href="#m26cd8d9e02" x="228.916806" y="193.88043" style="fill: #0000ff; fill-opacity: 0.8; stroke: #0000ff; stroke-opacity: 0.8"/>
     <use xlink:href="#m26cd8d9e02" x="258.525102" y="227.620558" style="fill: #0000ff; fill-opacity: 0.8; stroke: #0000ff; stroke-opacity: 0.8"/>
     <use xlink:href="#m26cd8d9e02" x="202.739067" y="247.342954" style="fill: #0000ff; fill-opacity: 0.8; stroke: #0000ff; stroke-opacity: 0.8"/>
     <use xlink:href="#m26cd8d9e02" x="259.012045" y="195.707742" style="fill: #0000ff; fill-opacity: 0.8; stroke: #0000ff; stroke-opacity: 0.8"/>
     <use xlink:href="#m26cd8d9e02" x="195.515503" y="206.270342" style="fill: #0000ff; fill-opacity: 0.8; stroke: #0000ff; stroke-opacity: 0.8"/>
     <use xlink:href="#m26cd8d9e02" x="242.309655" y="259.127116" style="fill: #0000ff; fill-opacity: 0.8; stroke: #0000ff; stroke-opacity: 0.8"/>
     <use xlink:href="#m26cd8d9e02" x="246.449153" y="314.742633" style="fill: #0000ff; fill-opacity: 0.8; stroke: #0000ff; stroke-opacity: 0.8"/>
     <use xlink:href="#m26cd8d9e02" x="239.315025" y="224.699917" style="fill: #0000ff; fill-opacity: 0.8; stroke: #0000ff; stroke-opacity: 0.8"/>
     <use xlink:href="#m26cd8d9e02" x="260.868419" y="133.127468" style="fill: #0000ff; fill-opacity: 0.8; stroke: #0000ff; stroke-opacity: 0.8"/>
     <use xlink:href="#m26cd8d9e02" x="235.621101" y="273.686046" style="fill: #0000ff; fill-opacity: 0.8; stroke: #0000ff; stroke-opacity: 0.8"/>
     <use xlink:href="#m26cd8d9e02" x="240.583997" y="226.304423" style="fill: #0000ff; fill-opacity: 0.8; stroke: #0000ff; stroke-opacity: 0.8"/>
     <use xlink:href="#m26cd8d9e02" x="268.993711" y="170.949774" style="fill: #0000ff; fill-opacity: 0.8; stroke: #0000ff; stroke-opacity: 0.8"/>
     <use xlink:href="#m26cd8d9e02" x="256.123308" y="208.083555" style="fill: #0000ff; fill-opacity: 0.8; stroke: #0000ff; stroke-opacity: 0.8"/>
     <use xlink:href="#m26cd8d9e02" x="231.461706" y="228.070799" style="fill: #0000ff; fill-opacity: 0.8; stroke: #0000ff; stroke-opacity: 0.8"/>
     <use xlink:href="#m26cd8d9e02" x="250.184322" y="164.643223" style="fill: #0000ff; fill-opacity: 0.8; stroke: #0000ff; stroke-opacity: 0.8"/>
     <use xlink:href="#m26cd8d9e02" x="201.939939" y="148.056608" style="fill: #0000ff; fill-opacity: 0.8; stroke: #0000ff; stroke-opacity: 0.8"/>
     <use xlink:href="#m26cd8d9e02" x="232.34125" y="188.675" style="fill: #0000ff; fill-opacity: 0.8; stroke: #0000ff; stroke-opacity: 0.8"/>
     <use xlink:href="#m26cd8d9e02" x="196.597694" y="172.326934" style="fill: #0000ff; fill-opacity: 0.8; stroke: #0000ff; stroke-opacity: 0.8"/>
     <use xlink:href="#m26cd8d9e02" x="198.17216" y="162.351606" style="fill: #0000ff; fill-opacity: 0.8; stroke: #0000ff; stroke-opacity: 0.8"/>
     <use xlink:href="#m26cd8d9e02" x="272.531336" y="270.781864" style="fill: #0000ff; fill-opacity: 0.8; stroke: #0000ff; stroke-opacity: 0.8"/>
     <use xlink:href="#m26cd8d9e02" x="242.311719" y="354.084273" style="fill: #0000ff; fill-opacity: 0.8; stroke: #0000ff; stroke-opacity: 0.8"/>
     <use xlink:href="#m26cd8d9e02" x="277.868974" y="133.059729" style="fill: #0000ff; fill-opacity: 0.8; stroke: #0000ff; stroke-opacity: 0.8"/>
     <use xlink:href="#m26cd8d9e02" x="271.069226" y="124.908724" style="fill: #0000ff; fill-opacity: 0.8; stroke: #0000ff; stroke-opacity: 0.8"/>
     <use xlink:href="#m26cd8d9e02" x="241.934237" y="41.517499" style="fill: #0000ff; fill-opacity: 0.8; stroke: #0000ff; stroke-opacity: 0.8"/>
     <use xlink:href="#m26cd8d9e02" x="261.069206" y="111.260142" style="fill: #0000ff; fill-opacity: 0.8; stroke: #0000ff; stroke-opacity: 0.8"/>
     <use xlink:href="#m26cd8d9e02" x="281.763254" y="172.415317" style="fill: #0000ff; fill-opacity: 0.8; stroke: #0000ff; stroke-opacity: 0.8"/>
     <use xlink:href="#m26cd8d9e02" x="189.781935" y="202.834385" style="fill: #0000ff; fill-opacity: 0.8; stroke: #0000ff; stroke-opacity: 0.8"/>
     <use xlink:href="#m26cd8d9e02" x="277.284094" y="222.468264" style="fill: #0000ff; fill-opacity: 0.8; stroke: #0000ff; stroke-opacity: 0.8"/>
     <use xlink:href="#m26cd8d9e02" x="249.209809" y="50.539546" style="fill: #0000ff; fill-opacity: 0.8; stroke: #0000ff; stroke-opacity: 0.8"/>
     <use xlink:href="#m26cd8d9e02" x="264.626153" y="92.148139" style="fill: #0000ff; fill-opacity: 0.8; stroke: #0000ff; stroke-opacity: 0.8"/>
     <use xlink:href="#m26cd8d9e02" x="274.673836" y="237.39815" style="fill: #0000ff; fill-opacity: 0.8; stroke: #0000ff; stroke-opacity: 0.8"/>
     <use xlink:href="#m26cd8d9e02" x="220.224015" y="349.227805" style="fill: #0000ff; fill-opacity: 0.8; stroke: #0000ff; stroke-opacity: 0.8"/>
     <use xlink:href="#m26cd8d9e02" x="278.162989" y="161.584809" style="fill: #0000ff; fill-opacity: 0.8; stroke: #0000ff; stroke-opacity: 0.8"/>
     <use xlink:href="#m26cd8d9e02" x="192.690251" y="247.018723" style="fill: #0000ff; fill-opacity: 0.8; stroke: #0000ff; stroke-opacity: 0.8"/>
     <use xlink:href="#m26cd8d9e02" x="238.773973" y="341.120641" style="fill: #0000ff; fill-opacity: 0.8; stroke: #0000ff; stroke-opacity: 0.8"/>
     <use xlink:href="#m26cd8d9e02" x="191.054222" y="131.396956" style="fill: #0000ff; fill-opacity: 0.8; stroke: #0000ff; stroke-opacity: 0.8"/>
     <use xlink:href="#m26cd8d9e02" x="280.395856" y="154.614386" style="fill: #0000ff; fill-opacity: 0.8; stroke: #0000ff; stroke-opacity: 0.8"/>
     <use xlink:href="#m26cd8d9e02" x="211.301265" y="339.672058" style="fill: #0000ff; fill-opacity: 0.8; stroke: #0000ff; stroke-opacity: 0.8"/>
     <use xlink:href="#m26cd8d9e02" x="194.168124" y="152.483668" style="fill: #0000ff; fill-opacity: 0.8; stroke: #0000ff; stroke-opacity: 0.8"/>
     <use xlink:href="#m26cd8d9e02" x="273.366418" y="220.541099" style="fill: #0000ff; fill-opacity: 0.8; stroke: #0000ff; stroke-opacity: 0.8"/>
     <use xlink:href="#m26cd8d9e02" x="219.433834" y="54.727903" style="fill: #0000ff; fill-opacity: 0.8; stroke: #0000ff; stroke-opacity: 0.8"/>
     <use xlink:href="#m26cd8d9e02" x="231.384618" y="40.397799" style="fill: #0000ff; fill-opacity: 0.8; stroke: #0000ff; stroke-opacity: 0.8"/>
     <use xlink:href="#m26cd8d9e02" x="212.108329" y="18.447068" style="fill: #0000ff; fill-opacity: 0.8; stroke: #0000ff; stroke-opacity: 0.8"/>
     <use xlink:href="#m26cd8d9e02" x="280.720939" y="213.617508" style="fill: #0000ff; fill-opacity: 0.8; stroke: #0000ff; stroke-opacity: 0.8"/>
     <use xlink:href="#m26cd8d9e02" x="198.821514" y="286.367962" style="fill: #0000ff; fill-opacity: 0.8; stroke: #0000ff; stroke-opacity: 0.8"/>
     <use xlink:href="#m26cd8d9e02" x="232.086514" y="342.445416" style="fill: #0000ff; fill-opacity: 0.8; stroke: #0000ff; stroke-opacity: 0.8"/>
     <use xlink:href="#m26cd8d9e02" x="210.095327" y="69.048839" style="fill: #0000ff; fill-opacity: 0.8; stroke: #0000ff; stroke-opacity: 0.8"/>
     <use xlink:href="#m26cd8d9e02" x="279.97257" y="253.931984" style="fill: #0000ff; fill-opacity: 0.8; stroke: #0000ff; stroke-opacity: 0.8"/>
     <use xlink:href="#m26cd8d9e02" x="213.865322" y="47.222441" style="fill: #0000ff; fill-opacity: 0.8; stroke: #0000ff; stroke-opacity: 0.8"/>
     <use xlink:href="#m26cd8d9e02" x="272.892483" y="302.76338" style="fill: #0000ff; fill-opacity: 0.8; stroke: #0000ff; stroke-opacity: 0.8"/>
     <use xlink:href="#m26cd8d9e02" x="242.78042" y="367.182335" style="fill: #0000ff; fill-opacity: 0.8; stroke: #0000ff; stroke-opacity: 0.8"/>
     <use xlink:href="#m26cd8d9e02" x="203.670752" y="37.851774" style="fill: #0000ff; fill-opacity: 0.8; stroke: #0000ff; stroke-opacity: 0.8"/>
     <use xlink:href="#m26cd8d9e02" x="205.043243" y="68.894393" style="fill: #0000ff; fill-opacity: 0.8; stroke: #0000ff; stroke-opacity: 0.8"/>
     <use xlink:href="#m26cd8d9e02" x="190.603395" y="171.668621" style="fill: #0000ff; fill-opacity: 0.8; stroke: #0000ff; stroke-opacity: 0.8"/>
     <use xlink:href="#m26cd8d9e02" x="245.280763" y="48.597347" style="fill: #0000ff; fill-opacity: 0.8; stroke: #0000ff; stroke-opacity: 0.8"/>
     <use xlink:href="#m26cd8d9e02" x="259.010806" y="56.131953" style="fill: #0000ff; fill-opacity: 0.8; stroke: #0000ff; stroke-opacity: 0.8"/>
     <use xlink:href="#m26cd8d9e02" x="219.580245" y="29.879302" style="fill: #0000ff; fill-opacity: 0.8; stroke: #0000ff; stroke-opacity: 0.8"/>
     <use xlink:href="#m26cd8d9e02" x="191.926308" y="223.458559" style="fill: #0000ff; fill-opacity: 0.8; stroke: #0000ff; stroke-opacity: 0.8"/>
     <use xlink:href="#m26cd8d9e02" x="198.744527" y="124.406524" style="fill: #0000ff; fill-opacity: 0.8; stroke: #0000ff; stroke-opacity: 0.8"/>
     <use xlink:href="#m26cd8d9e02" x="240.76086" y="357.435901" style="fill: #0000ff; fill-opacity: 0.8; stroke: #0000ff; stroke-opacity: 0.8"/>
     <use xlink:href="#m26cd8d9e02" x="227.33116" y="328.973333" style="fill: #0000ff; fill-opacity: 0.8; stroke: #0000ff; stroke-opacity: 0.8"/>
     <use xlink:href="#m26cd8d9e02" x="224.293541" y="340.39747" style="fill: #0000ff; fill-opacity: 0.8; stroke: #0000ff; stroke-opacity: 0.8"/>
     <use xlink:href="#m26cd8d9e02" x="199.596372" y="261.371253" style="fill: #0000ff; fill-opacity: 0.8; stroke: #0000ff; stroke-opacity: 0.8"/>
     <use xlink:href="#m26cd8d9e02" x="193.165764" y="283.90544" style="fill: #0000ff; fill-opacity: 0.8; stroke: #0000ff; stroke-opacity: 0.8"/>
     <use xlink:href="#m26cd8d9e02" x="226.930456" y="43.789815" style="fill: #0000ff; fill-opacity: 0.8; stroke: #0000ff; stroke-opacity: 0.8"/>
     <use xlink:href="#m26cd8d9e02" x="256.466095" y="56.305513" style="fill: #0000ff; fill-opacity: 0.8; stroke: #0000ff; stroke-opacity: 0.8"/>
     <use xlink:href="#m26cd8d9e02" x="257.732143" y="305.960172" style="fill: #0000ff; fill-opacity: 0.8; stroke: #0000ff; stroke-opacity: 0.8"/>
     <use xlink:href="#m26cd8d9e02" x="191.828346" y="85.447026" style="fill: #0000ff; fill-opacity: 0.8; stroke: #0000ff; stroke-opacity: 0.8"/>
     <use xlink:href="#m26cd8d9e02" x="227.122565" y="36.758544" style="fill: #0000ff; fill-opacity: 0.8; stroke: #0000ff; stroke-opacity: 0.8"/>
     <use xlink:href="#m26cd8d9e02" x="191.843972" y="244.731172" style="fill: #0000ff; fill-opacity: 0.8; stroke: #0000ff; stroke-opacity: 0.8"/>
     <use xlink:href="#m26cd8d9e02" x="197.913239" y="264.03629" style="fill: #0000ff; fill-opacity: 0.8; stroke: #0000ff; stroke-opacity: 0.8"/>
     <use xlink:href="#m26cd8d9e02" x="204.440933" y="75.395332" style="fill: #0000ff; fill-opacity: 0.8; stroke: #0000ff; stroke-opacity: 0.8"/>
     <use xlink:href="#m26cd8d9e02" x="228.155627" y="322.560615" style="fill: #0000ff; fill-opacity: 0.8; stroke: #0000ff; stroke-opacity: 0.8"/>
     <use xlink:href="#m26cd8d9e02" x="262.46981" y="284.95624" style="fill: #0000ff; fill-opacity: 0.8; stroke: #0000ff; stroke-opacity: 0.8"/>
     <use xlink:href="#m26cd8d9e02" x="282.284192" y="187.958533" style="fill: #0000ff; fill-opacity: 0.8; stroke: #0000ff; stroke-opacity: 0.8"/>
     <use xlink:href="#m26cd8d9e02" x="237.338161" y="357.50306" style="fill: #0000ff; fill-opacity: 0.8; stroke: #0000ff; stroke-opacity: 0.8"/>
     <use xlink:href="#m26cd8d9e02" x="202.025501" y="314.792465" style="fill: #0000ff; fill-opacity: 0.8; stroke: #0000ff; stroke-opacity: 0.8"/>
     <use xlink:href="#m26cd8d9e02" x="210.881218" y="40.180653" style="fill: #0000ff; fill-opacity: 0.8; stroke: #0000ff; stroke-opacity: 0.8"/>
     <use xlink:href="#m26cd8d9e02" x="249.33577" y="29.460438" style="fill: #0000ff; fill-opacity: 0.8; stroke: #0000ff; stroke-opacity: 0.8"/>
     <use xlink:href="#m26cd8d9e02" x="224.557028" y="350.563614" style="fill: #0000ff; fill-opacity: 0.8; stroke: #0000ff; stroke-opacity: 0.8"/>
     <use xlink:href="#m26cd8d9e02" x="280.626889" y="202.536676" style="fill: #0000ff; fill-opacity: 0.8; stroke: #0000ff; stroke-opacity: 0.8"/>
     <use xlink:href="#m26cd8d9e02" x="218.553951" y="315.668811" style="fill: #0000ff; fill-opacity: 0.8; stroke: #0000ff; stroke-opacity: 0.8"/>
     <use xlink:href="#m26cd8d9e02" x="268.34836" y="272.308343" style="fill: #0000ff; fill-opacity: 0.8; stroke: #0000ff; stroke-opacity: 0.8"/>
     <use xlink:href="#m26cd8d9e02" x="231.684592" y="328.72736" style="fill: #0000ff; fill-opacity: 0.8; stroke: #0000ff; stroke-opacity: 0.8"/>
     <use xlink:href="#m26cd8d9e02" x="267.874769" y="130.666819" style="fill: #0000ff; fill-opacity: 0.8; stroke: #0000ff; stroke-opacity: 0.8"/>
     <use xlink:href="#m26cd8d9e02" x="193.082705" y="254.749771" style="fill: #0000ff; fill-opacity: 0.8; stroke: #0000ff; stroke-opacity: 0.8"/>
     <use xlink:href="#m26cd8d9e02" x="200.418572" y="44.962452" style="fill: #0000ff; fill-opacity: 0.8; stroke: #0000ff; stroke-opacity: 0.8"/>
     <use xlink:href="#m26cd8d9e02" x="200.458683" y="95.66727" style="fill: #0000ff; fill-opacity: 0.8; stroke: #0000ff; stroke-opacity: 0.8"/>
     <use xlink:href="#m26cd8d9e02" x="240.068435" y="344.58852" style="fill: #0000ff; fill-opacity: 0.8; stroke: #0000ff; stroke-opacity: 0.8"/>
     <use xlink:href="#m26cd8d9e02" x="190.660549" y="275.641554" style="fill: #0000ff; fill-opacity: 0.8; stroke: #0000ff; stroke-opacity: 0.8"/>
     <use xlink:href="#m26cd8d9e02" x="197.308662" y="260.876185" style="fill: #0000ff; fill-opacity: 0.8; stroke: #0000ff; stroke-opacity: 0.8"/>
     <use xlink:href="#m26cd8d9e02" x="188.877683" y="217.631923" style="fill: #0000ff; fill-opacity: 0.8; stroke: #0000ff; stroke-opacity: 0.8"/>
     <use xlink:href="#m26cd8d9e02" x="278.808315" y="265.049026" style="fill: #0000ff; fill-opacity: 0.8; stroke: #0000ff; stroke-opacity: 0.8"/>
     <use xlink:href="#m26cd8d9e02" x="203.536191" y="313.435493" style="fill: #0000ff; fill-opacity: 0.8; stroke: #0000ff; stroke-opacity: 0.8"/>
    </g>
   </g>
   <g id="PathCollection_2">
    <defs>
     <path id="m09af08fd8d" d="M 0 1.936492 
C 0.513564 1.936492 1.006162 1.732451 1.369306 1.369306 
C 1.732451 1.006162 1.936492 0.513564 1.936492 0 
C 1.936492 -0.513564 1.732451 -1.006162 1.369306 -1.369306 
C 1.006162 -1.732451 0.513564 -1.936492 0 -1.936492 
C -0.513564 -1.936492 -1.006162 -1.732451 -1.369306 -1.369306 
C -1.732451 -1.006162 -1.936492 -0.513564 -1.936492 0 
C -1.936492 0.513564 -1.732451 1.006162 -1.369306 1.369306 
C -1.006162 1.732451 -0.513564 1.936492 0 1.936492 
z
" style="stroke: #808080"/>
    </defs>
    <g clip-path="url(#peab2152088)">
     <use xlink:href="#m09af08fd8d" x="247.484242" y="126.625572" style="fill: #808080; stroke: #808080"/>
     <use xlink:href="#m09af08fd8d" x="214.590343" y="290.963656" style="fill: #808080; stroke: #808080"/>
     <use xlink:href="#m09af08fd8d" x="245.651243" y="105.11241" style="fill: #808080; stroke: #808080"/>
     <use xlink:href="#m09af08fd8d" x="204.474584" y="197.933996" style="fill: #808080; stroke: #808080"/>
     <use xlink:href="#m09af08fd8d" x="219.727451" y="81.198863" style="fill: #808080; stroke: #808080"/>
     <use xlink:href="#m09af08fd8d" x="258.053475" y="253.217854" style="fill: #808080; stroke: #808080"/>
     <use xlink:href="#m09af08fd8d" x="236.525139" y="311.723038" style="fill: #808080; stroke: #808080"/>
     <use xlink:href="#m09af08fd8d" x="227.448053" y="229.760646" style="fill: #808080; stroke: #808080"/>
     <use xlink:href="#m09af08fd8d" x="248.09436" y="279.184771" style="fill: #808080; stroke: #808080"/>
     <use xlink:href="#m09af08fd8d" x="227.897799" y="202.006343" style="fill: #808080; stroke: #808080"/>
     <use xlink:href="#m09af08fd8d" x="244.492166" y="88.076538" style="fill: #808080; stroke: #808080"/>
     <use xlink:href="#m09af08fd8d" x="244.100358" y="309.237624" style="fill: #808080; stroke: #808080"/>
     <use xlink:href="#m09af08fd8d" x="237.344715" y="291.144101" style="fill: #808080; stroke: #808080"/>
     <use xlink:href="#m09af08fd8d" x="226.055889" y="319.160673" style="fill: #808080; stroke: #808080"/>
     <use xlink:href="#m09af08fd8d" x="243.905446" y="315.199803" style="fill: #808080; stroke: #808080"/>
     <use xlink:href="#m09af08fd8d" x="231.680306" y="163.839492" style="fill: #808080; stroke: #808080"/>
     <use xlink:href="#m09af08fd8d" x="268.266406" y="226.590235" style="fill: #808080; stroke: #808080"/>
     <use xlink:href="#m09af08fd8d" x="220.87865" y="289.278494" style="fill: #808080; stroke: #808080"/>
     <use xlink:href="#m09af08fd8d" x="255.641958" y="130.615033" style="fill: #808080; stroke: #808080"/>
     <use xlink:href="#m09af08fd8d" x="214.282644" y="226.838014" style="fill: #808080; stroke: #808080"/>
     <use xlink:href="#m09af08fd8d" x="252.33397" y="155.408576" style="fill: #808080; stroke: #808080"/>
     <use xlink:href="#m09af08fd8d" x="222.114261" y="82.232534" style="fill: #808080; stroke: #808080"/>
     <use xlink:href="#m09af08fd8d" x="234.773002" y="77.932959" style="fill: #808080; stroke: #808080"/>
     <use xlink:href="#m09af08fd8d" x="232.509843" y="213.250017" style="fill: #808080; stroke: #808080"/>
     <use xlink:href="#m09af08fd8d" x="234.155283" y="168.433178" style="fill: #808080; stroke: #808080"/>
     <use xlink:href="#m09af08fd8d" x="264.842625" y="191.297371" style="fill: #808080; stroke: #808080"/>
     <use xlink:href="#m09af08fd8d" x="249.442623" y="78.807863" style="fill: #808080; stroke: #808080"/>
     <use xlink:href="#m09af08fd8d" x="218.035783" y="178.248685" style="fill: #808080; stroke: #808080"/>
     <use xlink:href="#m09af08fd8d" x="237.183774" y="167.745735" style="fill: #808080; stroke: #808080"/>
     <use xlink:href="#m09af08fd8d" x="254.228332" y="119.602908" style="fill: #808080; stroke: #808080"/>
     <use xlink:href="#m09af08fd8d" x="245.451197" y="178.263663" style="fill: #808080; stroke: #808080"/>
     <use xlink:href="#m09af08fd8d" x="209.729338" y="153.103215" style="fill: #808080; stroke: #808080"/>
     <use xlink:href="#m09af08fd8d" x="226.58542" y="312.619651" style="fill: #808080; stroke: #808080"/>
     <use xlink:href="#m09af08fd8d" x="240.689674" y="136.996024" style="fill: #808080; stroke: #808080"/>
     <use xlink:href="#m09af08fd8d" x="209.719994" y="201.80573" style="fill: #808080; stroke: #808080"/>
     <use xlink:href="#m09af08fd8d" x="216.743745" y="187.00653" style="fill: #808080; stroke: #808080"/>
     <use xlink:href="#m09af08fd8d" x="211.161985" y="224.196589" style="fill: #808080; stroke: #808080"/>
     <use xlink:href="#m09af08fd8d" x="213.079815" y="103.072132" style="fill: #808080; stroke: #808080"/>
     <use xlink:href="#m09af08fd8d" x="229.378372" y="79.564696" style="fill: #808080; stroke: #808080"/>
     <use xlink:href="#m09af08fd8d" x="196.48583" y="150.424126" style="fill: #808080; stroke: #808080"/>
     <use xlink:href="#m09af08fd8d" x="235.463232" y="249.658984" style="fill: #808080; stroke: #808080"/>
     <use xlink:href="#m09af08fd8d" x="228.57492" y="212.11292" style="fill: #808080; stroke: #808080"/>
     <use xlink:href="#m09af08fd8d" x="246.849067" y="144.164711" style="fill: #808080; stroke: #808080"/>
     <use xlink:href="#m09af08fd8d" x="240.737351" y="127.54767" style="fill: #808080; stroke: #808080"/>
     <use xlink:href="#m09af08fd8d" x="229.856235" y="86.301508" style="fill: #808080; stroke: #808080"/>
     <use xlink:href="#m09af08fd8d" x="224.079967" y="249.611373" style="fill: #808080; stroke: #808080"/>
     <use xlink:href="#m09af08fd8d" x="212.989031" y="122.153633" style="fill: #808080; stroke: #808080"/>
     <use xlink:href="#m09af08fd8d" x="228.730661" y="295.058281" style="fill: #808080; stroke: #808080"/>
     <use xlink:href="#m09af08fd8d" x="215.945838" y="263.516138" style="fill: #808080; stroke: #808080"/>
     <use xlink:href="#m09af08fd8d" x="220.988977" y="127.076289" style="fill: #808080; stroke: #808080"/>
     <use xlink:href="#m09af08fd8d" x="251.025153" y="136.220534" style="fill: #808080; stroke: #808080"/>
     <use xlink:href="#m09af08fd8d" x="233.465266" y="309.940853" style="fill: #808080; stroke: #808080"/>
     <use xlink:href="#m09af08fd8d" x="227.707288" y="282.447695" style="fill: #808080; stroke: #808080"/>
     <use xlink:href="#m09af08fd8d" x="240.264362" y="273.889768" style="fill: #808080; stroke: #808080"/>
     <use xlink:href="#m09af08fd8d" x="219.517791" y="123.730299" style="fill: #808080; stroke: #808080"/>
     <use xlink:href="#m09af08fd8d" x="209.63746" y="138.182712" style="fill: #808080; stroke: #808080"/>
     <use xlink:href="#m09af08fd8d" x="214.015114" y="239.284042" style="fill: #808080; stroke: #808080"/>
     <use xlink:href="#m09af08fd8d" x="204.958152" y="226.654936" style="fill: #808080; stroke: #808080"/>
     <use xlink:href="#m09af08fd8d" x="217.861622" y="147.400166" style="fill: #808080; stroke: #808080"/>
     <use xlink:href="#m09af08fd8d" x="221.297814" y="95.033718" style="fill: #808080; stroke: #808080"/>
     <use xlink:href="#m09af08fd8d" x="250.611708" y="240.56229" style="fill: #808080; stroke: #808080"/>
     <use xlink:href="#m09af08fd8d" x="235.138666" y="232.286043" style="fill: #808080; stroke: #808080"/>
     <use xlink:href="#m09af08fd8d" x="255.277561" y="293.871585" style="fill: #808080; stroke: #808080"/>
     <use xlink:href="#m09af08fd8d" x="237.229878" y="186.43606" style="fill: #808080; stroke: #808080"/>
     <use xlink:href="#m09af08fd8d" x="262.581209" y="154.546454" style="fill: #808080; stroke: #808080"/>
     <use xlink:href="#m09af08fd8d" x="243.586731" y="116.443243" style="fill: #808080; stroke: #808080"/>
     <use xlink:href="#m09af08fd8d" x="248.945449" y="255.027815" style="fill: #808080; stroke: #808080"/>
     <use xlink:href="#m09af08fd8d" x="233.212731" y="263.556634" style="fill: #808080; stroke: #808080"/>
     <use xlink:href="#m09af08fd8d" x="240.904979" y="153.119659" style="fill: #808080; stroke: #808080"/>
     <use xlink:href="#m09af08fd8d" x="247.055932" y="250.021288" style="fill: #808080; stroke: #808080"/>
     <use xlink:href="#m09af08fd8d" x="236.32522" y="187.78595" style="fill: #808080; stroke: #808080"/>
     <use xlink:href="#m09af08fd8d" x="249.142697" y="208.671223" style="fill: #808080; stroke: #808080"/>
     <use xlink:href="#m09af08fd8d" x="197.028511" y="199.348961" style="fill: #808080; stroke: #808080"/>
     <use xlink:href="#m09af08fd8d" x="214.666714" y="297.868807" style="fill: #808080; stroke: #808080"/>
     <use xlink:href="#m09af08fd8d" x="226.915081" y="62.678101" style="fill: #808080; stroke: #808080"/>
     <use xlink:href="#m09af08fd8d" x="269.33918" y="218.221528" style="fill: #808080; stroke: #808080"/>
     <use xlink:href="#m09af08fd8d" x="226.3256" y="272.736564" style="fill: #808080; stroke: #808080"/>
     <use xlink:href="#m09af08fd8d" x="215.470216" y="74.521727" style="fill: #808080; stroke: #808080"/>
     <use xlink:href="#m09af08fd8d" x="270.4013" y="220.774073" style="fill: #808080; stroke: #808080"/>
     <use xlink:href="#m09af08fd8d" x="257.70398" y="230.75561" style="fill: #808080; stroke: #808080"/>
     <use xlink:href="#m09af08fd8d" x="205.167154" y="273.512781" style="fill: #808080; stroke: #808080"/>
     <use xlink:href="#m09af08fd8d" x="242.284464" y="285.704552" style="fill: #808080; stroke: #808080"/>
     <use xlink:href="#m09af08fd8d" x="269.152374" y="195.074134" style="fill: #808080; stroke: #808080"/>
     <use xlink:href="#m09af08fd8d" x="256.213876" y="227.220226" style="fill: #808080; stroke: #808080"/>
     <use xlink:href="#m09af08fd8d" x="196.88701" y="211.525986" style="fill: #808080; stroke: #808080"/>
     <use xlink:href="#m09af08fd8d" x="206.782414" y="109.778642" style="fill: #808080; stroke: #808080"/>
     <use xlink:href="#m09af08fd8d" x="228.916806" y="193.88043" style="fill: #808080; stroke: #808080"/>
     <use xlink:href="#m09af08fd8d" x="258.525102" y="227.620558" style="fill: #808080; stroke: #808080"/>
     <use xlink:href="#m09af08fd8d" x="202.739067" y="247.342954" style="fill: #808080; stroke: #808080"/>
     <use xlink:href="#m09af08fd8d" x="259.012045" y="195.707742" style="fill: #808080; stroke: #808080"/>
     <use xlink:href="#m09af08fd8d" x="195.515503" y="206.270342" style="fill: #808080; stroke: #808080"/>
     <use xlink:href="#m09af08fd8d" x="242.309655" y="259.127116" style="fill: #808080; stroke: #808080"/>
     <use xlink:href="#m09af08fd8d" x="246.449153" y="314.742633" style="fill: #808080; stroke: #808080"/>
     <use xlink:href="#m09af08fd8d" x="239.315025" y="224.699917" style="fill: #808080; stroke: #808080"/>
     <use xlink:href="#m09af08fd8d" x="260.868419" y="133.127468" style="fill: #808080; stroke: #808080"/>
     <use xlink:href="#m09af08fd8d" x="235.621101" y="273.686046" style="fill: #808080; stroke: #808080"/>
     <use xlink:href="#m09af08fd8d" x="240.583997" y="226.304423" style="fill: #808080; stroke: #808080"/>
     <use xlink:href="#m09af08fd8d" x="268.993711" y="170.949774" style="fill: #808080; stroke: #808080"/>
     <use xlink:href="#m09af08fd8d" x="256.123308" y="208.083555" style="fill: #808080; stroke: #808080"/>
     <use xlink:href="#m09af08fd8d" x="231.461706" y="228.070799" style="fill: #808080; stroke: #808080"/>
     <use xlink:href="#m09af08fd8d" x="250.184322" y="164.643223" style="fill: #808080; stroke: #808080"/>
     <use xlink:href="#m09af08fd8d" x="201.939939" y="148.056608" style="fill: #808080; stroke: #808080"/>
     <use xlink:href="#m09af08fd8d" x="232.34125" y="188.675" style="fill: #808080; stroke: #808080"/>
     <use xlink:href="#m09af08fd8d" x="196.597694" y="172.326934" style="fill: #808080; stroke: #808080"/>
     <use xlink:href="#m09af08fd8d" x="198.17216" y="162.351606" style="fill: #808080; stroke: #808080"/>
    </g>
   </g>
   <g id="matplotlib.axis_1">
    <g id="xtick_1">
     <g id="line2d_1">
      <path d="M 96.84002 370.15 
L 96.84002 7.2 
" clip-path="url(#peab2152088)" style="fill: none; stroke: #b0b0b0; stroke-opacity: 0.3; stroke-width: 0.8; stroke-linecap: square"/>
     </g>
     <g id="line2d_2">
      <defs>
       <path id="m44f24b6a0d" d="M 0 0 
L 0 3.5 
" style="stroke: #000000; stroke-width: 0.8"/>
      </defs>
      <g>
       <use xlink:href="#m44f24b6a0d" x="96.84002" y="370.15" style="stroke: #000000; stroke-width: 0.8"/>
      </g>
     </g>
     <g id="text_1">
      <!-- −1.0 -->
      <g transform="translate(85.956583 385.4825) scale(0.12 -0.12)">
       <defs>
        <path id="TimesNewRomanPSMT-2212" d="M 3484 2000 
L 116 2000 
L 116 2256 
L 3484 2256 
L 3484 2000 
z
" transform="scale(0.015625)"/>
        <path id="TimesNewRomanPSMT-31" d="M 750 3822 
L 1781 4325 
L 1884 4325 
L 1884 747 
Q 1884 391 1914 303 
Q 1944 216 2037 169 
Q 2131 122 2419 116 
L 2419 0 
L 825 0 
L 825 116 
Q 1125 122 1212 167 
Q 1300 213 1334 289 
Q 1369 366 1369 747 
L 1369 3034 
Q 1369 3497 1338 3628 
Q 1316 3728 1258 3775 
Q 1200 3822 1119 3822 
Q 1003 3822 797 3725 
L 750 3822 
z
" transform="scale(0.015625)"/>
        <path id="TimesNewRomanPSMT-2e" d="M 800 606 
Q 947 606 1047 504 
Q 1147 403 1147 259 
Q 1147 116 1045 14 
Q 944 -88 800 -88 
Q 656 -88 554 14 
Q 453 116 453 259 
Q 453 406 554 506 
Q 656 606 800 606 
z
" transform="scale(0.015625)"/>
        <path id="TimesNewRomanPSMT-30" d="M 231 2094 
Q 231 2819 450 3342 
Q 669 3866 1031 4122 
Q 1313 4325 1613 4325 
Q 2100 4325 2488 3828 
Q 2972 3213 2972 2159 
Q 2972 1422 2759 906 
Q 2547 391 2217 158 
Q 1888 -75 1581 -75 
Q 975 -75 572 641 
Q 231 1244 231 2094 
z
M 844 2016 
Q 844 1141 1059 588 
Q 1238 122 1591 122 
Q 1759 122 1940 273 
Q 2122 425 2216 781 
Q 2359 1319 2359 2297 
Q 2359 3022 2209 3506 
Q 2097 3866 1919 4016 
Q 1791 4119 1609 4119 
Q 1397 4119 1231 3928 
Q 1006 3669 925 3112 
Q 844 2556 844 2016 
z
" transform="scale(0.015625)"/>
       </defs>
       <use xlink:href="#TimesNewRomanPSMT-2212"/>
       <use xlink:href="#TimesNewRomanPSMT-31" x="56.396484"/>
       <use xlink:href="#TimesNewRomanPSMT-2e" x="106.396484"/>
       <use xlink:href="#TimesNewRomanPSMT-30" x="131.396484"/>
      </g>
     </g>
    </g>
    <g id="xtick_2">
     <g id="line2d_3">
      <path d="M 164.590635 370.15 
L 164.590635 7.2 
" clip-path="url(#peab2152088)" style="fill: none; stroke: #b0b0b0; stroke-opacity: 0.3; stroke-width: 0.8; stroke-linecap: square"/>
     </g>
     <g id="line2d_4">
      <g>
       <use xlink:href="#m44f24b6a0d" x="164.590635" y="370.15" style="stroke: #000000; stroke-width: 0.8"/>
      </g>
     </g>
     <g id="text_2">
      <!-- −0.5 -->
      <g transform="translate(153.707198 385.4825) scale(0.12 -0.12)">
       <defs>
        <path id="TimesNewRomanPSMT-35" d="M 2778 4238 
L 2534 3706 
L 1259 3706 
L 981 3138 
Q 1809 3016 2294 2522 
Q 2709 2097 2709 1522 
Q 2709 1188 2573 903 
Q 2438 619 2231 419 
Q 2025 219 1772 97 
Q 1413 -75 1034 -75 
Q 653 -75 479 54 
Q 306 184 306 341 
Q 306 428 378 495 
Q 450 563 559 563 
Q 641 563 702 538 
Q 763 513 909 409 
Q 1144 247 1384 247 
Q 1750 247 2026 523 
Q 2303 800 2303 1197 
Q 2303 1581 2056 1914 
Q 1809 2247 1375 2428 
Q 1034 2569 447 2591 
L 1259 4238 
L 2778 4238 
z
" transform="scale(0.015625)"/>
       </defs>
       <use xlink:href="#TimesNewRomanPSMT-2212"/>
       <use xlink:href="#TimesNewRomanPSMT-30" x="56.396484"/>
       <use xlink:href="#TimesNewRomanPSMT-2e" x="106.396484"/>
       <use xlink:href="#TimesNewRomanPSMT-35" x="131.396484"/>
      </g>
     </g>
    </g>
    <g id="xtick_3">
     <g id="line2d_5">
      <path d="M 232.34125 370.15 
L 232.34125 7.2 
" clip-path="url(#peab2152088)" style="fill: none; stroke: #b0b0b0; stroke-opacity: 0.3; stroke-width: 0.8; stroke-linecap: square"/>
     </g>
     <g id="line2d_6">
      <g>
       <use xlink:href="#m44f24b6a0d" x="232.34125" y="370.15" style="stroke: #000000; stroke-width: 0.8"/>
      </g>
     </g>
     <g id="text_3">
      <!-- 0.0 -->
      <g transform="translate(224.84125 385.4825) scale(0.12 -0.12)">
       <use xlink:href="#TimesNewRomanPSMT-30"/>
       <use xlink:href="#TimesNewRomanPSMT-2e" x="50"/>
       <use xlink:href="#TimesNewRomanPSMT-30" x="75"/>
      </g>
     </g>
    </g>
    <g id="xtick_4">
     <g id="line2d_7">
      <path d="M 300.091865 370.15 
L 300.091865 7.2 
" clip-path="url(#peab2152088)" style="fill: none; stroke: #b0b0b0; stroke-opacity: 0.3; stroke-width: 0.8; stroke-linecap: square"/>
     </g>
     <g id="line2d_8">
      <g>
       <use xlink:href="#m44f24b6a0d" x="300.091865" y="370.15" style="stroke: #000000; stroke-width: 0.8"/>
      </g>
     </g>
     <g id="text_4">
      <!-- 0.5 -->
      <g transform="translate(292.591865 385.4825) scale(0.12 -0.12)">
       <use xlink:href="#TimesNewRomanPSMT-30"/>
       <use xlink:href="#TimesNewRomanPSMT-2e" x="50"/>
       <use xlink:href="#TimesNewRomanPSMT-35" x="75"/>
      </g>
     </g>
    </g>
    <g id="xtick_5">
     <g id="line2d_9">
      <path d="M 367.84248 370.15 
L 367.84248 7.2 
" clip-path="url(#peab2152088)" style="fill: none; stroke: #b0b0b0; stroke-opacity: 0.3; stroke-width: 0.8; stroke-linecap: square"/>
     </g>
     <g id="line2d_10">
      <g>
       <use xlink:href="#m44f24b6a0d" x="367.84248" y="370.15" style="stroke: #000000; stroke-width: 0.8"/>
      </g>
     </g>
     <g id="text_5">
      <!-- 1.0 -->
      <g transform="translate(360.34248 385.4825) scale(0.12 -0.12)">
       <use xlink:href="#TimesNewRomanPSMT-31"/>
       <use xlink:href="#TimesNewRomanPSMT-2e" x="50"/>
       <use xlink:href="#TimesNewRomanPSMT-30" x="75"/>
      </g>
     </g>
    </g>
    <g id="text_6">
     <!-- x1 -->
     <g transform="translate(226.34125 400.381875) scale(0.12 -0.12)">
      <defs>
       <path id="TimesNewRomanPSMT-78" d="M 84 2863 
L 1431 2863 
L 1431 2747 
Q 1303 2747 1251 2703 
Q 1200 2659 1200 2588 
Q 1200 2513 1309 2356 
Q 1344 2306 1413 2200 
L 1616 1875 
L 1850 2200 
Q 2075 2509 2075 2591 
Q 2075 2656 2022 2701 
Q 1969 2747 1850 2747 
L 1850 2863 
L 2819 2863 
L 2819 2747 
Q 2666 2738 2553 2663 
Q 2400 2556 2134 2200 
L 1744 1678 
L 2456 653 
Q 2719 275 2831 198 
Q 2944 122 3122 113 
L 3122 0 
L 1772 0 
L 1772 113 
Q 1913 113 1991 175 
Q 2050 219 2050 291 
Q 2050 363 1850 653 
L 1431 1266 
L 972 653 
Q 759 369 759 316 
Q 759 241 829 180 
Q 900 119 1041 113 
L 1041 0 
L 106 0 
L 106 113 
Q 219 128 303 191 
Q 422 281 703 653 
L 1303 1450 
L 759 2238 
Q 528 2575 401 2661 
Q 275 2747 84 2747 
L 84 2863 
z
" transform="scale(0.015625)"/>
      </defs>
      <use xlink:href="#TimesNewRomanPSMT-78"/>
      <use xlink:href="#TimesNewRomanPSMT-31" x="50"/>
     </g>
    </g>
   </g>
   <g id="matplotlib.axis_2">
    <g id="ytick_1">
     <g id="line2d_11">
      <path d="M 50.86625 324.17623 
L 413.81625 324.17623 
" clip-path="url(#peab2152088)" style="fill: none; stroke: #b0b0b0; stroke-opacity: 0.3; stroke-width: 0.8; stroke-linecap: square"/>
     </g>
     <g id="line2d_12">
      <defs>
       <path id="me992504a9b" d="M 0 0 
L -3.5 0 
" style="stroke: #000000; stroke-width: 0.8"/>
      </defs>
      <g>
       <use xlink:href="#me992504a9b" x="50.86625" y="324.17623" style="stroke: #000000; stroke-width: 0.8"/>
      </g>
     </g>
     <g id="text_7">
      <!-- −1.0 -->
      <g transform="translate(22.099375 328.34248) scale(0.12 -0.12)">
       <use xlink:href="#TimesNewRomanPSMT-2212"/>
       <use xlink:href="#TimesNewRomanPSMT-31" x="56.396484"/>
       <use xlink:href="#TimesNewRomanPSMT-2e" x="106.396484"/>
       <use xlink:href="#TimesNewRomanPSMT-30" x="131.396484"/>
      </g>
     </g>
    </g>
    <g id="ytick_2">
     <g id="line2d_13">
      <path d="M 50.86625 256.425615 
L 413.81625 256.425615 
" clip-path="url(#peab2152088)" style="fill: none; stroke: #b0b0b0; stroke-opacity: 0.3; stroke-width: 0.8; stroke-linecap: square"/>
     </g>
     <g id="line2d_14">
      <g>
       <use xlink:href="#me992504a9b" x="50.86625" y="256.425615" style="stroke: #000000; stroke-width: 0.8"/>
      </g>
     </g>
     <g id="text_8">
      <!-- −0.5 -->
      <g transform="translate(22.099375 260.591865) scale(0.12 -0.12)">
       <use xlink:href="#TimesNewRomanPSMT-2212"/>
       <use xlink:href="#TimesNewRomanPSMT-30" x="56.396484"/>
       <use xlink:href="#TimesNewRomanPSMT-2e" x="106.396484"/>
       <use xlink:href="#TimesNewRomanPSMT-35" x="131.396484"/>
      </g>
     </g>
    </g>
    <g id="ytick_3">
     <g id="line2d_15">
      <path d="M 50.86625 188.675 
L 413.81625 188.675 
" clip-path="url(#peab2152088)" style="fill: none; stroke: #b0b0b0; stroke-opacity: 0.3; stroke-width: 0.8; stroke-linecap: square"/>
     </g>
     <g id="line2d_16">
      <g>
       <use xlink:href="#me992504a9b" x="50.86625" y="188.675" style="stroke: #000000; stroke-width: 0.8"/>
      </g>
     </g>
     <g id="text_9">
      <!-- 0.0 -->
      <g transform="translate(28.86625 192.84125) scale(0.12 -0.12)">
       <use xlink:href="#TimesNewRomanPSMT-30"/>
       <use xlink:href="#TimesNewRomanPSMT-2e" x="50"/>
       <use xlink:href="#TimesNewRomanPSMT-30" x="75"/>
      </g>
     </g>
    </g>
    <g id="ytick_4">
     <g id="line2d_17">
      <path d="M 50.86625 120.924385 
L 413.81625 120.924385 
" clip-path="url(#peab2152088)" style="fill: none; stroke: #b0b0b0; stroke-opacity: 0.3; stroke-width: 0.8; stroke-linecap: square"/>
     </g>
     <g id="line2d_18">
      <g>
       <use xlink:href="#me992504a9b" x="50.86625" y="120.924385" style="stroke: #000000; stroke-width: 0.8"/>
      </g>
     </g>
     <g id="text_10">
      <!-- 0.5 -->
      <g transform="translate(28.86625 125.090635) scale(0.12 -0.12)">
       <use xlink:href="#TimesNewRomanPSMT-30"/>
       <use xlink:href="#TimesNewRomanPSMT-2e" x="50"/>
       <use xlink:href="#TimesNewRomanPSMT-35" x="75"/>
      </g>
     </g>
    </g>
    <g id="ytick_5">
     <g id="line2d_19">
      <path d="M 50.86625 53.17377 
L 413.81625 53.17377 
" clip-path="url(#peab2152088)" style="fill: none; stroke: #b0b0b0; stroke-opacity: 0.3; stroke-width: 0.8; stroke-linecap: square"/>
     </g>
     <g id="line2d_20">
      <g>
       <use xlink:href="#me992504a9b" x="50.86625" y="53.17377" style="stroke: #000000; stroke-width: 0.8"/>
      </g>
     </g>
     <g id="text_11">
      <!-- 1.0 -->
      <g transform="translate(28.86625 57.34002) scale(0.12 -0.12)">
       <use xlink:href="#TimesNewRomanPSMT-31"/>
       <use xlink:href="#TimesNewRomanPSMT-2e" x="50"/>
       <use xlink:href="#TimesNewRomanPSMT-30" x="75"/>
      </g>
     </g>
    </g>
    <g id="text_12">
     <!-- x2 -->
     <g transform="translate(15.5325 194.675) rotate(-90) scale(0.12 -0.12)">
      <defs>
       <path id="TimesNewRomanPSMT-32" d="M 2934 816 
L 2638 0 
L 138 0 
L 138 116 
Q 1241 1122 1691 1759 
Q 2141 2397 2141 2925 
Q 2141 3328 1894 3587 
Q 1647 3847 1303 3847 
Q 991 3847 742 3664 
Q 494 3481 375 3128 
L 259 3128 
Q 338 3706 661 4015 
Q 984 4325 1469 4325 
Q 1984 4325 2329 3994 
Q 2675 3663 2675 3213 
Q 2675 2891 2525 2569 
Q 2294 2063 1775 1497 
Q 997 647 803 472 
L 1909 472 
Q 2247 472 2383 497 
Q 2519 522 2628 598 
Q 2738 675 2819 816 
L 2934 816 
z
" transform="scale(0.015625)"/>
      </defs>
      <use xlink:href="#TimesNewRomanPSMT-78"/>
      <use xlink:href="#TimesNewRomanPSMT-32" x="50"/>
     </g>
    </g>
   </g>
   <g id="line2d_21">
    <path d="M 367.84248 188.675 
L 367.569672 180.080981 
L 366.752347 171.521567 
L 365.393796 163.031224 
L 363.49949 154.644139 
L 361.077055 146.394084 
L 358.136247 138.31428 
L 354.688906 130.437261 
L 350.748915 122.794744 
L 346.332138 115.417504 
L 341.45636 108.335246 
L 336.141214 101.576488 
L 330.408102 95.168445 
L 324.28011 89.13692 
L 317.781912 83.506199 
L 310.939675 78.298957 
L 303.780949 73.536159 
L 296.334562 69.236985 
L 288.630495 65.418746 
L 280.699772 62.096816 
L 272.574326 59.284572 
L 264.286876 56.993337 
L 255.870792 55.232338 
L 247.359962 54.008666 
L 238.788658 53.327247 
L 230.191392 53.190826 
L 221.602783 53.599952 
L 213.057414 54.552977 
L 204.589695 56.046065 
L 196.23372 58.073202 
L 188.023139 60.626227 
L 179.99101 63.694859 
L 172.169678 67.266742 
L 164.590635 71.327493 
L 157.2844 75.860761 
L 150.280393 80.848292 
L 143.606815 86.270003 
L 137.29054 92.104063 
L 131.357 98.32698 
L 125.830089 104.913697 
L 120.73206 111.837691 
L 116.083442 119.071082 
L 111.902953 126.584743 
L 108.207427 134.348419 
L 105.011744 142.33085 
L 102.328772 150.499892 
L 100.169314 158.822652 
L 98.542066 167.265617 
L 97.45358 175.794789 
L 96.908239 184.375826 
L 96.908239 192.974174 
L 97.45358 201.555211 
L 98.542066 210.084383 
L 100.169314 218.527348 
L 102.328772 226.850108 
L 105.011744 235.01915 
L 108.207427 243.001581 
L 111.902953 250.765257 
L 116.083442 258.278918 
L 120.73206 265.512309 
L 125.830089 272.436303 
L 131.357 279.02302 
L 137.29054 285.245937 
L 143.606815 291.079997 
L 150.280393 296.501708 
L 157.2844 301.489239 
L 164.590635 306.022507 
L 172.169678 310.083258 
L 179.99101 313.655141 
L 188.023139 316.723773 
L 196.23372 319.276798 
L 204.589695 321.303935 
L 213.057414 322.797023 
L 221.602783 323.750048 
L 230.191392 324.159174 
L 238.788658 324.022753 
L 247.359962 323.341334 
L 255.870792 322.117662 
L 264.286876 320.356663 
L 272.574326 318.065428 
L 280.699772 315.253184 
L 288.630495 311.931254 
L 296.334562 308.113015 
L 303.780949 303.813841 
L 310.939675 299.051043 
L 317.781912 293.843801 
L 324.28011 288.21308 
L 330.408102 282.181555 
L 336.141214 275.773512 
L 341.45636 269.014754 
L 346.332138 261.932496 
L 350.748915 254.555256 
L 354.688906 246.912739 
L 358.136247 239.03572 
L 361.077055 230.955916 
L 363.49949 222.705861 
L 365.393796 214.318776 
L 366.752347 205.828433 
L 367.569672 197.269019 
L 367.84248 188.675 
" clip-path="url(#peab2152088)" style="fill: none; stroke-dasharray: 5.55,2.4; stroke-dashoffset: 0; stroke: #000000; stroke-width: 1.5"/>
   </g>
   <g id="line2d_22">
    <path d="M 413.81625 188.675 
L 413.450882 177.165144 
L 412.35625 165.701634 
L 410.53676 154.33063 
L 407.999741 143.097919 
L 404.755406 132.04873 
L 400.816821 121.227556 
L 396.199844 110.677968 
L 390.923066 100.442447 
L 385.007735 90.562208 
L 378.47767 81.077034 
L 371.359165 72.025119 
L 363.680885 63.442911 
L 355.473745 55.36497 
L 346.770795 47.82382 
L 337.607078 40.849829 
L 328.019492 34.471078 
L 318.046643 28.713251 
L 307.728689 23.599534 
L 297.107177 19.150517 
L 286.224875 15.384116 
L 275.125603 12.315496 
L 263.854053 9.957013 
L 252.455612 8.318165 
L 240.976178 7.40555 
L 229.461974 7.222843 
L 217.959364 7.77078 
L 206.514665 9.047154 
L 195.17396 11.046826 
L 183.982915 13.761744 
L 172.986591 17.180976 
L 162.229268 21.290754 
L 151.754261 26.07453 
L 141.60375 31.51304 
L 131.818606 37.584386 
L 122.438232 44.26412 
L 113.500398 51.525346 
L 105.041095 59.338825 
L 97.094384 67.673096 
L 89.692265 76.494598 
L 82.864542 85.767811 
L 76.63871 95.455395 
L 71.039837 105.518342 
L 66.090468 115.916131 
L 61.810532 126.606894 
L 58.217263 137.547584 
L 55.325129 148.694146 
L 53.145778 160.001697 
L 51.687983 171.424705 
L 50.957615 182.917173 
L 50.957615 194.432827 
L 51.687983 205.925295 
L 53.145778 217.348303 
L 55.325129 228.655854 
L 58.217263 239.802416 
L 61.810532 250.743106 
L 66.090468 261.433869 
L 71.039837 271.831658 
L 76.63871 281.894605 
L 82.864542 291.582189 
L 89.692265 300.855402 
L 97.094384 309.676904 
L 105.041095 318.011175 
L 113.500398 325.824654 
L 122.438232 333.08588 
L 131.818606 339.765614 
L 141.60375 345.83696 
L 151.754261 351.27547 
L 162.229268 356.059246 
L 172.986591 360.169024 
L 183.982915 363.588256 
L 195.17396 366.303174 
L 206.514665 368.302846 
L 217.959364 369.57922 
L 229.461974 370.127157 
L 240.976178 369.94445 
L 252.455612 369.031835 
L 263.854053 367.392987 
L 275.125603 365.034504 
L 286.224875 361.965884 
L 297.107177 358.199483 
L 307.728689 353.750466 
L 318.046643 348.636749 
L 328.019492 342.878922 
L 337.607078 336.500171 
L 346.770795 329.52618 
L 355.473745 321.98503 
L 363.680885 313.907089 
L 371.359165 305.324881 
L 378.47767 296.272966 
L 385.007735 286.787792 
L 390.923066 276.907553 
L 396.199844 266.672032 
L 400.816821 256.122444 
L 404.755406 245.30127 
L 407.999741 234.252081 
L 410.53676 223.01937 
L 412.35625 211.648366 
L 413.450882 200.184856 
L 413.81625 188.675 
" clip-path="url(#peab2152088)" style="fill: none; stroke-dasharray: 9.6,2.4,1.5,2.4; stroke-dashoffset: 0; stroke: #ff0000; stroke-width: 1.5"/>
   </g>
   <g id="QuadContourSet_1">
    <path d="M 229.605446 322.931824 
L 227.781577 321.894988 
L 225.957707 320.539567 
L 224.133838 318.855486 
L 222.309969 316.832393 
L 219.916054 313.61005 
L 218.66223 311.725587 
L 216.595937 308.138442 
L 214.744597 304.490704 
L 212.332547 299.019095 
L 210.895803 295.371357 
L 208.964679 289.899749 
L 207.242832 284.428141 
L 205.222615 277.132663 
L 203.45841 269.837186 
L 201.911916 262.541709 
L 200.251438 253.422362 
L 198.862957 244.303015 
L 197.929589 237.007538 
L 196.948949 227.888191 
L 196.189475 218.768844 
L 195.528033 207.825628 
L 195.127986 196.882412 
L 194.98836 185.939196 
L 195.107318 174.99598 
L 195.482679 164.052764 
L 196.112375 153.109548 
L 196.83323 143.990201 
L 197.985688 133.046985 
L 199.181569 123.927638 
L 200.62183 114.808291 
L 202.357947 105.688945 
L 204.071275 98.088734 
L 205.915457 91.09799 
L 208.202529 83.802513 
L 210.223923 78.330905 
L 211.76492 74.683166 
L 213.527138 71.035427 
L 215.605346 67.387688 
L 216.838361 65.47409 
L 218.66223 63.0893 
L 220.486099 61.133058 
L 222.309969 59.583662 
L 224.487843 58.268342 
L 225.957707 57.638788 
L 227.781577 57.216514 
L 229.605446 57.147815 
L 231.429315 57.426321 
L 233.677859 58.268342 
L 235.077054 59.00649 
L 236.900923 60.302573 
L 238.724793 61.937359 
L 240.548662 63.914289 
L 243.160937 67.387688 
L 244.380962 69.211558 
L 246.516111 72.859296 
L 248.407722 76.507035 
L 250.114875 80.154774 
L 252.398657 85.626382 
L 254.437061 91.09799 
L 256.274265 96.569598 
L 257.943508 102.041206 
L 259.949988 109.336683 
L 261.735894 116.632161 
L 263.327514 123.927638 
L 264.746154 131.223116 
L 266.291885 140.342462 
L 267.831929 151.285678 
L 268.669004 158.581156 
L 269.53789 167.700503 
L 270.186891 176.819849 
L 270.522428 183.30908 
M 270.426946 221.396623 
L 269.928805 229.71206 
L 269.157966 238.831407 
L 268.16081 247.950754 
L 267.172213 255.246231 
L 265.695455 264.365578 
L 264.258964 271.830482 
L 262.435094 279.851945 
L 260.611225 286.711465 
L 258.485098 293.547487 
L 256.511589 299.019095 
L 254.213752 304.490704 
L 252.444715 308.138442 
L 250.409789 311.786181 
L 249.264832 313.61005 
L 247.844139 315.661058 
L 246.02027 317.912865 
L 244.196401 319.796701 
L 242.372531 321.328703 
L 240.113685 322.729397 
L 238.724793 323.381885 
L 236.900923 323.921815 
L 235.077054 324.145186 
L 233.253185 324.053516 
L 231.429315 323.648453 
L 229.605446 322.931824 
L 229.605446 322.931824 
" clip-path="url(#peab2152088)" style="fill: none; stroke: #800080; stroke-width: 1.5"/>
    <path d="M 190.517713 134.108326 
L 191.52393 123.927638 
L 192.862997 112.984422 
L 193.918671 105.688945 
L 195.428298 96.569598 
L 197.191823 87.450251 
L 198.812266 80.154774 
L 200.663241 72.859296 
L 202.796681 65.563819 
L 204.62061 60.092211 
L 206.698732 54.620603 
L 208.258632 50.972864 
L 210.00647 47.325126 
L 212.008091 43.677387 
L 213.190622 41.724681 
L 215.741987 38.205779 
L 217.308625 36.38191 
L 219.185738 34.55804 
L 220.486099 33.478806 
L 222.309969 32.294582 
L 224.133838 31.437534 
L 225.957707 30.896523 
L 227.781577 30.669022 
L 229.605446 30.745755 
L 231.429315 31.124038 
L 233.253185 31.801247 
L 235.077054 32.771009 
L 237.509421 34.55804 
L 239.496147 36.38191 
L 241.187991 38.205779 
L 242.690832 40.029648 
L 245.274698 43.677387 
L 246.43744 45.501256 
L 248.54195 49.148995 
L 250.441741 52.796734 
L 252.181224 56.444472 
L 254.553312 61.91608 
L 256.703732 67.387688 
L 258.023265 71.035427 
L 259.881139 76.507035 
L 262.150695 83.802513 
L 263.706341 89.274121 
L 265.623353 96.569598 
L 267.369659 103.865075 
L 268.960681 111.160553 
L 270.749197 120.279899 
L 272.326812 129.399246 
L 273.70696 138.518593 
L 275.107633 149.461809 
L 276.059392 158.581156 
L 276.975885 169.524372 
L 277.530287 178.643719 
L 277.966947 189.586935 
L 278.152623 200.530151 
L 278.085093 211.473367 
L 277.763715 222.416583 
L 277.188926 233.359799 
L 276.497929 242.479146 
L 275.422044 253.422362 
L 274.291763 262.541709 
L 272.947163 271.661055 
L 271.358971 280.780402 
L 269.490551 289.899749 
L 267.769072 297.195226 
L 265.802849 304.490704 
L 263.544277 311.786181 
L 261.619579 317.257789 
L 259.442791 322.729397 
L 257.81262 326.377136 
L 256.002982 330.024874 
L 253.961394 333.672613 
L 252.829587 335.496482 
L 251.491878 337.496953 
L 248.732235 340.96809 
L 247.002943 342.79196 
L 246.02027 343.736321 
L 244.196401 345.203693 
L 242.25713 346.439698 
L 240.548662 347.274104 
L 238.724793 347.890828 
L 236.148054 348.263568 
L 234.700048 348.263568 
L 233.253185 348.104826 
L 231.429315 347.634373 
L 229.605446 346.895124 
L 227.781577 345.882768 
L 225.957707 344.597056 
L 223.899858 342.79196 
L 222.132291 340.96809 
L 220.486099 339.031342 
L 217.940334 335.496482 
L 216.745509 333.672613 
L 214.627672 330.024874 
L 212.730378 326.377136 
L 210.206431 320.905528 
L 208.691316 317.257789 
L 206.617827 311.786181 
L 204.745711 306.314573 
L 203.043275 300.842965 
L 201.485315 295.371357 
L 199.605493 288.075879 
L 197.923037 280.780402 
L 196.066999 271.661055 
L 194.453463 262.541709 
L 193.056104 253.422362 
L 191.660173 242.479146 
L 190.702106 233.359799 
L 189.778064 222.416583 
L 189.194138 213.297236 
L 188.707962 202.35402 
L 188.438159 191.410804 
L 188.382735 180.467588 
L 188.483307 172.147202 
L 188.483307 172.147202 
" clip-path="url(#peab2152088)" style="fill: none; stroke: #008000; stroke-width: 1.5"/>
    <path d="M 231.429315 368.698828 
L 229.605446 367.92896 
L 227.183685 366.502261 
L 225.957707 365.653363 
L 224.133838 364.143085 
L 222.309969 362.378906 
L 219.567998 359.206784 
L 218.171195 357.382915 
L 215.694146 353.735176 
L 214.566623 351.911307 
L 212.502553 348.263568 
L 210.626498 344.615829 
L 208.902039 340.96809 
L 206.547442 335.496482 
L 204.412866 330.024874 
L 202.46465 324.553266 
L 200.67589 319.081658 
L 199.024849 313.61005 
L 197.493792 308.138442 
L 195.615029 300.842965 
L 193.908607 293.547487 
L 191.991169 284.428141 
L 190.293514 275.308794 
L 188.795628 266.189447 
L 188.080783 261.38279 
M 184.091728 223.501433 
L 183.474833 213.297236 
L 183.00395 202.35402 
L 182.724616 191.410804 
L 182.637729 178.643719 
L 182.804329 165.876633 
L 183.220505 153.109548 
L 183.883064 140.342462 
L 184.670366 129.399246 
L 185.832582 116.604186 
L 187.074339 105.688945 
L 188.287009 96.569598 
L 189.98328 85.626382 
L 191.623836 76.507035 
L 193.508397 67.387688 
L 195.680864 58.268342 
L 197.664863 50.972864 
L 199.327758 45.501256 
L 201.17425 40.029648 
L 203.246576 34.55804 
L 204.783391 30.910302 
L 206.476381 27.262563 
L 208.371399 23.614824 
L 210.534624 19.967085 
L 211.741611 18.143216 
L 213.190622 16.148824 
L 215.014491 13.971571 
L 216.838361 12.118036 
L 218.66223 10.576611 
L 221.090619 9.023869 
L 222.309969 8.396485 
L 224.133838 7.741355 
L 225.957707 7.367917 
L 227.781577 7.273012 
L 229.605446 7.45333 
L 231.429315 7.90537 
L 233.98957 9.023869 
L 235.077054 9.613994 
L 236.900923 10.867512 
L 239.013061 12.671608 
L 240.831765 14.495477 
L 242.442094 16.319347 
L 245.19142 19.967085 
L 246.431906 21.790955 
L 248.675745 25.438693 
L 250.703948 29.086432 
L 252.562394 32.734171 
L 254.284601 36.38191 
L 256.670432 41.853518 
L 258.787356 47.143368 
L 261.501772 54.620603 
L 263.929154 61.91608 
L 266.158711 69.211558 
L 269.172433 80.154774 
L 271.440097 89.274121 
L 273.37831 97.854872 
L 275.349598 107.512814 
L 277.332807 118.45603 
L 279.064159 129.399246 
L 280.673788 141.35059 
L 281.784539 151.285678 
L 282.791616 162.228894 
L 283.558892 173.172111 
L 284.102443 184.115327 
L 284.415565 195.058543 
L 284.499669 206.001759 
L 284.361214 216.944975 
L 283.991055 227.888191 
L 283.392632 238.831407 
L 282.497657 250.59328 
L 281.489556 260.717839 
L 280.403256 269.837186 
L 278.8476 280.780402 
L 276.986223 291.723618 
L 275.177326 300.842965 
L 273.09363 309.962312 
L 271.203409 317.257789 
L 269.073527 324.553266 
L 267.29409 330.024874 
L 265.323184 335.496482 
L 263.121768 340.96809 
L 261.494475 344.615829 
L 259.710686 348.263568 
L 257.730812 351.911307 
L 256.656883 353.735176 
L 254.247731 357.382915 
L 252.900583 359.206784 
L 251.423333 361.030653 
L 249.668009 362.941316 
L 247.814754 364.678392 
L 245.411238 366.502261 
L 244.196401 367.290365 
L 242.115902 368.326131 
L 240.548662 368.914556 
L 238.724793 369.35614 
L 236.900923 369.554663 
L 235.077054 369.510789 
L 233.253185 369.22524 
L 231.429315 368.698828 
L 231.429315 368.698828 
" clip-path="url(#peab2152088)" style="fill: none; stroke: #ffa500; stroke-width: 1.5"/>
   </g>
   <g id="patch_3">
    <path d="M 50.86625 370.15 
L 50.86625 7.2 
" style="fill: none; stroke: #000000; stroke-width: 0.8; stroke-linejoin: miter; stroke-linecap: square"/>
   </g>
   <g id="patch_4">
    <path d="M 413.81625 370.15 
L 413.81625 7.2 
" style="fill: none; stroke: #000000; stroke-width: 0.8; stroke-linejoin: miter; stroke-linecap: square"/>
   </g>
   <g id="patch_5">
    <path d="M 50.86625 370.15 
L 413.81625 370.15 
" style="fill: none; stroke: #000000; stroke-width: 0.8; stroke-linejoin: miter; stroke-linecap: square"/>
   </g>
   <g id="patch_6">
    <path d="M 50.86625 7.2 
L 413.81625 7.2 
" style="fill: none; stroke: #000000; stroke-width: 0.8; stroke-linejoin: miter; stroke-linecap: square"/>
   </g>
   <g id="text_13">
    <g clip-path="url(#peab2152088)">
     <!-- 1.0272 -->
     <g style="fill: #800080" transform="translate(273.291139 216.10992) rotate(-89.858276) scale(0.1 -0.1)">
      <defs>
       <path id="TimesNewRomanPSMT-37" d="M 644 4238 
L 2916 4238 
L 2916 4119 
L 1503 -88 
L 1153 -88 
L 2419 3728 
L 1253 3728 
Q 900 3728 750 3644 
Q 488 3500 328 3200 
L 238 3234 
L 644 4238 
z
" transform="scale(0.015625)"/>
      </defs>
      <use xlink:href="#TimesNewRomanPSMT-31"/>
      <use xlink:href="#TimesNewRomanPSMT-2e" x="50"/>
      <use xlink:href="#TimesNewRomanPSMT-30" x="75"/>
      <use xlink:href="#TimesNewRomanPSMT-32" x="125"/>
      <use xlink:href="#TimesNewRomanPSMT-37" x="175"/>
      <use xlink:href="#TimesNewRomanPSMT-32" x="225"/>
     </g>
    </g>
   </g>
   <g id="text_14">
    <g clip-path="url(#peab2152088)">
     <!-- 1.0772 -->
     <g style="fill: #008000" transform="translate(190.828028 166.968578) rotate(-86.926428) scale(0.1 -0.1)">
      <use xlink:href="#TimesNewRomanPSMT-31"/>
      <use xlink:href="#TimesNewRomanPSMT-2e" x="50"/>
      <use xlink:href="#TimesNewRomanPSMT-30" x="75"/>
      <use xlink:href="#TimesNewRomanPSMT-37" x="125"/>
      <use xlink:href="#TimesNewRomanPSMT-37" x="175"/>
      <use xlink:href="#TimesNewRomanPSMT-32" x="225"/>
     </g>
    </g>
   </g>
   <g id="text_15">
    <g clip-path="url(#peab2152088)">
     <!-- 1.1272 -->
     <g style="fill: #ffa500" transform="translate(181.908607 229.057176) rotate(-276.02383) scale(0.1 -0.1)">
      <use xlink:href="#TimesNewRomanPSMT-31"/>
      <use xlink:href="#TimesNewRomanPSMT-2e" x="50"/>
      <use xlink:href="#TimesNewRomanPSMT-31" x="75"/>
      <use xlink:href="#TimesNewRomanPSMT-32" x="125"/>
      <use xlink:href="#TimesNewRomanPSMT-37" x="175"/>
      <use xlink:href="#TimesNewRomanPSMT-32" x="225"/>
     </g>
    </g>
   </g>
   <g id="legend_1">
    <g id="patch_7">
     <path d="M 280.69875 84.7125 
L 405.41625 84.7125 
Q 407.81625 84.7125 407.81625 82.3125 
L 407.81625 15.6 
Q 407.81625 13.2 405.41625 13.2 
L 280.69875 13.2 
Q 278.29875 13.2 278.29875 15.6 
L 278.29875 82.3125 
Q 278.29875 84.7125 280.69875 84.7125 
z
" style="fill: #ffffff; opacity: 0.9; stroke: #cccccc; stroke-linejoin: miter"/>
    </g>
    <g id="line2d_23">
     <path d="M 283.09875 22.2 
L 295.09875 22.2 
L 307.09875 22.2 
" style="fill: none; stroke-dasharray: 5.55,2.4; stroke-dashoffset: 0; stroke: #000000; stroke-width: 1.5"/>
    </g>
    <g id="text_16">
     <!-- Initial boundary -->
     <g transform="translate(316.69875 26.4) scale(0.12 -0.12)">
      <defs>
       <path id="TimesNewRomanPSMT-49" d="M 1975 116 
L 1975 0 
L 159 0 
L 159 116 
L 309 116 
Q 572 116 691 269 
Q 766 369 766 750 
L 766 3488 
Q 766 3809 725 3913 
Q 694 3991 597 4047 
Q 459 4122 309 4122 
L 159 4122 
L 159 4238 
L 1975 4238 
L 1975 4122 
L 1822 4122 
Q 1563 4122 1444 3969 
Q 1366 3869 1366 3488 
L 1366 750 
Q 1366 428 1406 325 
Q 1438 247 1538 191 
Q 1672 116 1822 116 
L 1975 116 
z
" transform="scale(0.015625)"/>
       <path id="TimesNewRomanPSMT-6e" d="M 1034 2341 
Q 1538 2947 1994 2947 
Q 2228 2947 2397 2830 
Q 2566 2713 2666 2444 
Q 2734 2256 2734 1869 
L 2734 647 
Q 2734 375 2778 278 
Q 2813 200 2889 156 
Q 2966 113 3172 113 
L 3172 0 
L 1756 0 
L 1756 113 
L 1816 113 
Q 2016 113 2095 173 
Q 2175 234 2206 353 
Q 2219 400 2219 647 
L 2219 1819 
Q 2219 2209 2117 2386 
Q 2016 2563 1775 2563 
Q 1403 2563 1034 2156 
L 1034 647 
Q 1034 356 1069 288 
Q 1113 197 1189 155 
Q 1266 113 1500 113 
L 1500 0 
L 84 0 
L 84 113 
L 147 113 
Q 366 113 442 223 
Q 519 334 519 647 
L 519 1709 
Q 519 2225 495 2337 
Q 472 2450 423 2490 
Q 375 2531 294 2531 
Q 206 2531 84 2484 
L 38 2597 
L 900 2947 
L 1034 2947 
L 1034 2341 
z
" transform="scale(0.015625)"/>
       <path id="TimesNewRomanPSMT-69" d="M 928 4444 
Q 1059 4444 1151 4351 
Q 1244 4259 1244 4128 
Q 1244 3997 1151 3903 
Q 1059 3809 928 3809 
Q 797 3809 703 3903 
Q 609 3997 609 4128 
Q 609 4259 701 4351 
Q 794 4444 928 4444 
z
M 1188 2947 
L 1188 647 
Q 1188 378 1227 289 
Q 1266 200 1342 156 
Q 1419 113 1622 113 
L 1622 0 
L 231 0 
L 231 113 
Q 441 113 512 153 
Q 584 194 626 287 
Q 669 381 669 647 
L 669 1750 
Q 669 2216 641 2353 
Q 619 2453 572 2492 
Q 525 2531 444 2531 
Q 356 2531 231 2484 
L 188 2597 
L 1050 2947 
L 1188 2947 
z
" transform="scale(0.015625)"/>
       <path id="TimesNewRomanPSMT-74" d="M 1031 3803 
L 1031 2863 
L 1700 2863 
L 1700 2644 
L 1031 2644 
L 1031 788 
Q 1031 509 1111 412 
Q 1191 316 1316 316 
Q 1419 316 1516 380 
Q 1613 444 1666 569 
L 1788 569 
Q 1678 263 1478 108 
Q 1278 -47 1066 -47 
Q 922 -47 784 33 
Q 647 113 581 261 
Q 516 409 516 719 
L 516 2644 
L 63 2644 
L 63 2747 
Q 234 2816 414 2980 
Q 594 3144 734 3369 
Q 806 3488 934 3803 
L 1031 3803 
z
" transform="scale(0.015625)"/>
       <path id="TimesNewRomanPSMT-61" d="M 1822 413 
Q 1381 72 1269 19 
Q 1100 -59 909 -59 
Q 613 -59 420 144 
Q 228 347 228 678 
Q 228 888 322 1041 
Q 450 1253 767 1440 
Q 1084 1628 1822 1897 
L 1822 2009 
Q 1822 2438 1686 2597 
Q 1550 2756 1291 2756 
Q 1094 2756 978 2650 
Q 859 2544 859 2406 
L 866 2225 
Q 866 2081 792 2003 
Q 719 1925 600 1925 
Q 484 1925 411 2006 
Q 338 2088 338 2228 
Q 338 2497 613 2722 
Q 888 2947 1384 2947 
Q 1766 2947 2009 2819 
Q 2194 2722 2281 2516 
Q 2338 2381 2338 1966 
L 2338 994 
Q 2338 584 2353 492 
Q 2369 400 2405 369 
Q 2441 338 2488 338 
Q 2538 338 2575 359 
Q 2641 400 2828 588 
L 2828 413 
Q 2478 -56 2159 -56 
Q 2006 -56 1915 50 
Q 1825 156 1822 413 
z
M 1822 616 
L 1822 1706 
Q 1350 1519 1213 1441 
Q 966 1303 859 1153 
Q 753 1003 753 825 
Q 753 600 887 451 
Q 1022 303 1197 303 
Q 1434 303 1822 616 
z
" transform="scale(0.015625)"/>
       <path id="TimesNewRomanPSMT-6c" d="M 1184 4444 
L 1184 647 
Q 1184 378 1223 290 
Q 1263 203 1344 158 
Q 1425 113 1647 113 
L 1647 0 
L 244 0 
L 244 113 
Q 441 113 512 153 
Q 584 194 625 287 
Q 666 381 666 647 
L 666 3247 
Q 666 3731 644 3842 
Q 622 3953 573 3993 
Q 525 4034 450 4034 
Q 369 4034 244 3984 
L 191 4094 
L 1044 4444 
L 1184 4444 
z
" transform="scale(0.015625)"/>
       <path id="TimesNewRomanPSMT-20" transform="scale(0.015625)"/>
       <path id="TimesNewRomanPSMT-62" d="M 984 2369 
Q 1400 2947 1881 2947 
Q 2322 2947 2650 2570 
Q 2978 2194 2978 1541 
Q 2978 778 2472 313 
Q 2038 -88 1503 -88 
Q 1253 -88 995 3 
Q 738 94 469 275 
L 469 3241 
Q 469 3728 445 3840 
Q 422 3953 372 3993 
Q 322 4034 247 4034 
Q 159 4034 28 3984 
L -16 4094 
L 844 4444 
L 984 4444 
L 984 2369 
z
M 984 2169 
L 984 456 
Q 1144 300 1314 220 
Q 1484 141 1663 141 
Q 1947 141 2192 453 
Q 2438 766 2438 1363 
Q 2438 1913 2192 2208 
Q 1947 2503 1634 2503 
Q 1469 2503 1303 2419 
Q 1178 2356 984 2169 
z
" transform="scale(0.015625)"/>
       <path id="TimesNewRomanPSMT-6f" d="M 1600 2947 
Q 2250 2947 2644 2453 
Q 2978 2031 2978 1484 
Q 2978 1100 2793 706 
Q 2609 313 2286 112 
Q 1963 -88 1566 -88 
Q 919 -88 538 428 
Q 216 863 216 1403 
Q 216 1797 411 2186 
Q 606 2575 925 2761 
Q 1244 2947 1600 2947 
z
M 1503 2744 
Q 1338 2744 1170 2645 
Q 1003 2547 900 2300 
Q 797 2053 797 1666 
Q 797 1041 1045 587 
Q 1294 134 1700 134 
Q 2003 134 2200 384 
Q 2397 634 2397 1244 
Q 2397 2006 2069 2444 
Q 1847 2744 1503 2744 
z
" transform="scale(0.015625)"/>
       <path id="TimesNewRomanPSMT-75" d="M 2709 2863 
L 2709 1128 
Q 2709 631 2732 520 
Q 2756 409 2807 365 
Q 2859 322 2928 322 
Q 3025 322 3147 375 
L 3191 266 
L 2334 -88 
L 2194 -88 
L 2194 519 
Q 1825 119 1631 15 
Q 1438 -88 1222 -88 
Q 981 -88 804 51 
Q 628 191 559 409 
Q 491 628 491 1028 
L 491 2306 
Q 491 2509 447 2587 
Q 403 2666 317 2708 
Q 231 2750 6 2747 
L 6 2863 
L 1009 2863 
L 1009 947 
Q 1009 547 1148 422 
Q 1288 297 1484 297 
Q 1619 297 1789 381 
Q 1959 466 2194 703 
L 2194 2325 
Q 2194 2569 2105 2655 
Q 2016 2741 1734 2747 
L 1734 2863 
L 2709 2863 
z
" transform="scale(0.015625)"/>
       <path id="TimesNewRomanPSMT-64" d="M 2222 322 
Q 2013 103 1813 7 
Q 1613 -88 1381 -88 
Q 913 -88 563 304 
Q 213 697 213 1313 
Q 213 1928 600 2439 
Q 988 2950 1597 2950 
Q 1975 2950 2222 2709 
L 2222 3238 
Q 2222 3728 2198 3840 
Q 2175 3953 2125 3993 
Q 2075 4034 2000 4034 
Q 1919 4034 1784 3984 
L 1744 4094 
L 2597 4444 
L 2738 4444 
L 2738 1134 
Q 2738 631 2761 520 
Q 2784 409 2836 365 
Q 2888 322 2956 322 
Q 3041 322 3181 375 
L 3216 266 
L 2366 -88 
L 2222 -88 
L 2222 322 
z
M 2222 541 
L 2222 2016 
Q 2203 2228 2109 2403 
Q 2016 2578 1861 2667 
Q 1706 2756 1559 2756 
Q 1284 2756 1069 2509 
Q 784 2184 784 1559 
Q 784 928 1059 592 
Q 1334 256 1672 256 
Q 1956 256 2222 541 
z
" transform="scale(0.015625)"/>
       <path id="TimesNewRomanPSMT-72" d="M 1038 2947 
L 1038 2303 
Q 1397 2947 1775 2947 
Q 1947 2947 2059 2842 
Q 2172 2738 2172 2600 
Q 2172 2478 2090 2393 
Q 2009 2309 1897 2309 
Q 1788 2309 1652 2417 
Q 1516 2525 1450 2525 
Q 1394 2525 1328 2463 
Q 1188 2334 1038 2041 
L 1038 669 
Q 1038 431 1097 309 
Q 1138 225 1241 169 
Q 1344 113 1538 113 
L 1538 0 
L 72 0 
L 72 113 
Q 291 113 397 181 
Q 475 231 506 341 
Q 522 394 522 644 
L 522 1753 
Q 522 2253 501 2348 
Q 481 2444 426 2487 
Q 372 2531 291 2531 
Q 194 2531 72 2484 
L 41 2597 
L 906 2947 
L 1038 2947 
z
" transform="scale(0.015625)"/>
       <path id="TimesNewRomanPSMT-79" d="M 38 2863 
L 1372 2863 
L 1372 2747 
L 1306 2747 
Q 1166 2747 1095 2686 
Q 1025 2625 1025 2534 
Q 1025 2413 1128 2197 
L 1825 753 
L 2466 2334 
Q 2519 2463 2519 2588 
Q 2519 2644 2497 2672 
Q 2472 2706 2419 2726 
Q 2366 2747 2231 2747 
L 2231 2863 
L 3163 2863 
L 3163 2747 
Q 3047 2734 2984 2696 
Q 2922 2659 2847 2556 
Q 2819 2513 2741 2316 
L 1575 -541 
Q 1406 -956 1132 -1168 
Q 859 -1381 606 -1381 
Q 422 -1381 303 -1275 
Q 184 -1169 184 -1031 
Q 184 -900 270 -820 
Q 356 -741 506 -741 
Q 609 -741 788 -809 
Q 913 -856 944 -856 
Q 1038 -856 1148 -759 
Q 1259 -663 1372 -384 
L 1575 113 
L 547 2272 
Q 500 2369 397 2513 
Q 319 2622 269 2659 
Q 197 2709 38 2747 
L 38 2863 
z
" transform="scale(0.015625)"/>
      </defs>
      <use xlink:href="#TimesNewRomanPSMT-49"/>
      <use xlink:href="#TimesNewRomanPSMT-6e" x="33.300781"/>
      <use xlink:href="#TimesNewRomanPSMT-69" x="83.300781"/>
      <use xlink:href="#TimesNewRomanPSMT-74" x="111.083984"/>
      <use xlink:href="#TimesNewRomanPSMT-69" x="138.867188"/>
      <use xlink:href="#TimesNewRomanPSMT-61" x="166.650391"/>
      <use xlink:href="#TimesNewRomanPSMT-6c" x="211.035156"/>
      <use xlink:href="#TimesNewRomanPSMT-20" x="238.818359"/>
      <use xlink:href="#TimesNewRomanPSMT-62" x="263.818359"/>
      <use xlink:href="#TimesNewRomanPSMT-6f" x="313.818359"/>
      <use xlink:href="#TimesNewRomanPSMT-75" x="363.818359"/>
      <use xlink:href="#TimesNewRomanPSMT-6e" x="413.818359"/>
      <use xlink:href="#TimesNewRomanPSMT-64" x="463.818359"/>
      <use xlink:href="#TimesNewRomanPSMT-61" x="513.818359"/>
      <use xlink:href="#TimesNewRomanPSMT-72" x="558.203125"/>
      <use xlink:href="#TimesNewRomanPSMT-79" x="591.503906"/>
     </g>
    </g>
    <g id="line2d_24">
     <path d="M 283.09875 39.189375 
L 295.09875 39.189375 
L 307.09875 39.189375 
" style="fill: none; stroke-dasharray: 9.6,2.4,1.5,2.4; stroke-dashoffset: 0; stroke: #ff0000; stroke-width: 1.5"/>
    </g>
    <g id="text_17">
     <!-- Failure boundary -->
     <g transform="translate(316.69875 43.389375) scale(0.12 -0.12)">
      <defs>
       <path id="TimesNewRomanPSMT-46" d="M 1309 4006 
L 1309 2341 
L 2081 2341 
Q 2347 2341 2470 2458 
Q 2594 2575 2634 2922 
L 2750 2922 
L 2750 1488 
L 2634 1488 
Q 2631 1734 2570 1850 
Q 2509 1966 2401 2023 
Q 2294 2081 2081 2081 
L 1309 2081 
L 1309 750 
Q 1309 428 1350 325 
Q 1381 247 1481 191 
Q 1619 116 1769 116 
L 1922 116 
L 1922 0 
L 103 0 
L 103 116 
L 253 116 
Q 516 116 634 269 
Q 709 369 709 750 
L 709 3488 
Q 709 3809 669 3913 
Q 638 3991 541 4047 
Q 406 4122 253 4122 
L 103 4122 
L 103 4238 
L 3256 4238 
L 3297 3306 
L 3188 3306 
Q 3106 3603 2998 3742 
Q 2891 3881 2733 3943 
Q 2575 4006 2244 4006 
L 1309 4006 
z
" transform="scale(0.015625)"/>
       <path id="TimesNewRomanPSMT-65" d="M 681 1784 
Q 678 1147 991 784 
Q 1303 422 1725 422 
Q 2006 422 2214 576 
Q 2422 731 2563 1106 
L 2659 1044 
Q 2594 616 2278 264 
Q 1963 -88 1488 -88 
Q 972 -88 605 314 
Q 238 716 238 1394 
Q 238 2128 614 2539 
Q 991 2950 1559 2950 
Q 2041 2950 2350 2633 
Q 2659 2316 2659 1784 
L 681 1784 
z
M 681 1966 
L 2006 1966 
Q 1991 2241 1941 2353 
Q 1863 2528 1708 2628 
Q 1553 2728 1384 2728 
Q 1125 2728 920 2526 
Q 716 2325 681 1966 
z
" transform="scale(0.015625)"/>
      </defs>
      <use xlink:href="#TimesNewRomanPSMT-46"/>
      <use xlink:href="#TimesNewRomanPSMT-61" x="55.615234"/>
      <use xlink:href="#TimesNewRomanPSMT-69" x="100"/>
      <use xlink:href="#TimesNewRomanPSMT-6c" x="127.783203"/>
      <use xlink:href="#TimesNewRomanPSMT-75" x="155.566406"/>
      <use xlink:href="#TimesNewRomanPSMT-72" x="205.566406"/>
      <use xlink:href="#TimesNewRomanPSMT-65" x="238.867188"/>
      <use xlink:href="#TimesNewRomanPSMT-20" x="283.251953"/>
      <use xlink:href="#TimesNewRomanPSMT-62" x="308.251953"/>
      <use xlink:href="#TimesNewRomanPSMT-6f" x="358.251953"/>
      <use xlink:href="#TimesNewRomanPSMT-75" x="408.251953"/>
      <use xlink:href="#TimesNewRomanPSMT-6e" x="458.251953"/>
      <use xlink:href="#TimesNewRomanPSMT-64" x="508.251953"/>
      <use xlink:href="#TimesNewRomanPSMT-61" x="558.251953"/>
      <use xlink:href="#TimesNewRomanPSMT-72" x="602.636719"/>
      <use xlink:href="#TimesNewRomanPSMT-79" x="635.9375"/>
     </g>
    </g>
    <g id="PathCollection_3">
     <g>
      <use xlink:href="#m26cd8d9e02" x="295.09875" y="57.22875" style="fill: #0000ff; fill-opacity: 0.8; stroke: #0000ff; stroke-opacity: 0.8"/>
     </g>
    </g>
    <g id="text_18">
     <!-- New Samples -->
     <g transform="translate(316.69875 60.37875) scale(0.12 -0.12)">
      <defs>
       <path id="TimesNewRomanPSMT-4e" d="M -84 4238 
L 1066 4238 
L 3656 1059 
L 3656 3503 
Q 3656 3894 3569 3991 
Q 3453 4122 3203 4122 
L 3056 4122 
L 3056 4238 
L 4531 4238 
L 4531 4122 
L 4381 4122 
Q 4113 4122 4000 3959 
Q 3931 3859 3931 3503 
L 3931 -69 
L 3819 -69 
L 1025 3344 
L 1025 734 
Q 1025 344 1109 247 
Q 1228 116 1475 116 
L 1625 116 
L 1625 0 
L 150 0 
L 150 116 
L 297 116 
Q 569 116 681 278 
Q 750 378 750 734 
L 750 3681 
Q 566 3897 470 3965 
Q 375 4034 191 4094 
Q 100 4122 -84 4122 
L -84 4238 
z
" transform="scale(0.015625)"/>
       <path id="TimesNewRomanPSMT-77" d="M 41 2863 
L 1241 2863 
L 1241 2747 
Q 1075 2734 1023 2687 
Q 972 2641 972 2553 
Q 972 2456 1025 2319 
L 1638 672 
L 2253 2013 
L 2091 2434 
Q 2016 2622 1894 2694 
Q 1825 2738 1638 2747 
L 1638 2863 
L 3000 2863 
L 3000 2747 
Q 2775 2738 2681 2666 
Q 2619 2616 2619 2506 
Q 2619 2444 2644 2378 
L 3294 734 
L 3897 2319 
Q 3959 2488 3959 2588 
Q 3959 2647 3898 2694 
Q 3838 2741 3659 2747 
L 3659 2863 
L 4563 2863 
L 4563 2747 
Q 4291 2706 4163 2378 
L 3206 -88 
L 3078 -88 
L 2363 1741 
L 1528 -88 
L 1413 -88 
L 494 2319 
Q 403 2547 315 2626 
Q 228 2706 41 2747 
L 41 2863 
z
" transform="scale(0.015625)"/>
       <path id="TimesNewRomanPSMT-53" d="M 2934 4334 
L 2934 2869 
L 2819 2869 
Q 2763 3291 2617 3541 
Q 2472 3791 2203 3937 
Q 1934 4084 1647 4084 
Q 1322 4084 1109 3886 
Q 897 3688 897 3434 
Q 897 3241 1031 3081 
Q 1225 2847 1953 2456 
Q 2547 2138 2764 1967 
Q 2981 1797 3098 1565 
Q 3216 1334 3216 1081 
Q 3216 600 2842 251 
Q 2469 -97 1881 -97 
Q 1697 -97 1534 -69 
Q 1438 -53 1133 45 
Q 828 144 747 144 
Q 669 144 623 97 
Q 578 50 556 -97 
L 441 -97 
L 441 1356 
L 556 1356 
Q 638 900 775 673 
Q 913 447 1195 297 
Q 1478 147 1816 147 
Q 2206 147 2432 353 
Q 2659 559 2659 841 
Q 2659 997 2573 1156 
Q 2488 1316 2306 1453 
Q 2184 1547 1640 1851 
Q 1097 2156 867 2337 
Q 638 2519 519 2737 
Q 400 2956 400 3219 
Q 400 3675 750 4004 
Q 1100 4334 1641 4334 
Q 1978 4334 2356 4169 
Q 2531 4091 2603 4091 
Q 2684 4091 2736 4139 
Q 2788 4188 2819 4334 
L 2934 4334 
z
" transform="scale(0.015625)"/>
       <path id="TimesNewRomanPSMT-6d" d="M 1050 2338 
Q 1363 2650 1419 2697 
Q 1559 2816 1721 2881 
Q 1884 2947 2044 2947 
Q 2313 2947 2506 2790 
Q 2700 2634 2766 2338 
Q 3088 2713 3309 2830 
Q 3531 2947 3766 2947 
Q 3994 2947 4170 2830 
Q 4347 2713 4450 2447 
Q 4519 2266 4519 1878 
L 4519 647 
Q 4519 378 4559 278 
Q 4591 209 4675 161 
Q 4759 113 4950 113 
L 4950 0 
L 3538 0 
L 3538 113 
L 3597 113 
Q 3781 113 3884 184 
Q 3956 234 3988 344 
Q 4000 397 4000 647 
L 4000 1878 
Q 4000 2228 3916 2372 
Q 3794 2572 3525 2572 
Q 3359 2572 3192 2489 
Q 3025 2406 2788 2181 
L 2781 2147 
L 2788 2013 
L 2788 647 
Q 2788 353 2820 281 
Q 2853 209 2943 161 
Q 3034 113 3253 113 
L 3253 0 
L 1806 0 
L 1806 113 
Q 2044 113 2133 169 
Q 2222 225 2256 338 
Q 2272 391 2272 647 
L 2272 1878 
Q 2272 2228 2169 2381 
Q 2031 2581 1784 2581 
Q 1616 2581 1450 2491 
Q 1191 2353 1050 2181 
L 1050 647 
Q 1050 366 1089 281 
Q 1128 197 1204 155 
Q 1281 113 1516 113 
L 1516 0 
L 100 0 
L 100 113 
Q 297 113 375 155 
Q 453 197 493 289 
Q 534 381 534 647 
L 534 1741 
Q 534 2213 506 2350 
Q 484 2453 437 2492 
Q 391 2531 309 2531 
Q 222 2531 100 2484 
L 53 2597 
L 916 2947 
L 1050 2947 
L 1050 2338 
z
" transform="scale(0.015625)"/>
       <path id="TimesNewRomanPSMT-70" d="M -6 2578 
L 875 2934 
L 994 2934 
L 994 2266 
Q 1216 2644 1439 2795 
Q 1663 2947 1909 2947 
Q 2341 2947 2628 2609 
Q 2981 2197 2981 1534 
Q 2981 794 2556 309 
Q 2206 -88 1675 -88 
Q 1444 -88 1275 -22 
Q 1150 25 994 166 
L 994 -706 
Q 994 -1000 1030 -1079 
Q 1066 -1159 1155 -1206 
Q 1244 -1253 1478 -1253 
L 1478 -1369 
L -22 -1369 
L -22 -1253 
L 56 -1253 
Q 228 -1256 350 -1188 
Q 409 -1153 442 -1076 
Q 475 -1000 475 -688 
L 475 2019 
Q 475 2297 450 2372 
Q 425 2447 370 2484 
Q 316 2522 222 2522 
Q 147 2522 31 2478 
L -6 2578 
z
M 994 2081 
L 994 1013 
Q 994 666 1022 556 
Q 1066 375 1236 237 
Q 1406 100 1666 100 
Q 1978 100 2172 344 
Q 2425 663 2425 1241 
Q 2425 1897 2138 2250 
Q 1938 2494 1663 2494 
Q 1513 2494 1366 2419 
Q 1253 2363 994 2081 
z
" transform="scale(0.015625)"/>
       <path id="TimesNewRomanPSMT-73" d="M 2050 2947 
L 2050 1972 
L 1947 1972 
Q 1828 2431 1642 2597 
Q 1456 2763 1169 2763 
Q 950 2763 815 2647 
Q 681 2531 681 2391 
Q 681 2216 781 2091 
Q 878 1963 1175 1819 
L 1631 1597 
Q 2266 1288 2266 781 
Q 2266 391 1970 151 
Q 1675 -88 1309 -88 
Q 1047 -88 709 6 
Q 606 38 541 38 
Q 469 38 428 -44 
L 325 -44 
L 325 978 
L 428 978 
Q 516 541 762 319 
Q 1009 97 1316 97 
Q 1531 97 1667 223 
Q 1803 350 1803 528 
Q 1803 744 1651 891 
Q 1500 1038 1047 1263 
Q 594 1488 453 1669 
Q 313 1847 313 2119 
Q 313 2472 555 2709 
Q 797 2947 1181 2947 
Q 1350 2947 1591 2875 
Q 1750 2828 1803 2828 
Q 1853 2828 1881 2850 
Q 1909 2872 1947 2947 
L 2050 2947 
z
" transform="scale(0.015625)"/>
      </defs>
      <use xlink:href="#TimesNewRomanPSMT-4e"/>
      <use xlink:href="#TimesNewRomanPSMT-65" x="72.216797"/>
      <use xlink:href="#TimesNewRomanPSMT-77" x="116.601562"/>
      <use xlink:href="#TimesNewRomanPSMT-20" x="188.818359"/>
      <use xlink:href="#TimesNewRomanPSMT-53" x="213.818359"/>
      <use xlink:href="#TimesNewRomanPSMT-61" x="269.433594"/>
      <use xlink:href="#TimesNewRomanPSMT-6d" x="313.818359"/>
      <use xlink:href="#TimesNewRomanPSMT-70" x="391.601562"/>
      <use xlink:href="#TimesNewRomanPSMT-6c" x="441.601562"/>
      <use xlink:href="#TimesNewRomanPSMT-65" x="469.384766"/>
      <use xlink:href="#TimesNewRomanPSMT-73" x="513.769531"/>
     </g>
    </g>
    <g id="PathCollection_4">
     <g>
      <use xlink:href="#m09af08fd8d" x="295.09875" y="74.195625" style="fill: #808080; stroke: #808080"/>
     </g>
    </g>
    <g id="text_19">
     <!-- Retained Samples -->
     <g transform="translate(316.69875 77.345625) scale(0.12 -0.12)">
      <defs>
       <path id="TimesNewRomanPSMT-52" d="M 4325 0 
L 3194 0 
L 1759 1981 
Q 1600 1975 1500 1975 
Q 1459 1975 1412 1976 
Q 1366 1978 1316 1981 
L 1316 750 
Q 1316 350 1403 253 
Q 1522 116 1759 116 
L 1925 116 
L 1925 0 
L 109 0 
L 109 116 
L 269 116 
Q 538 116 653 291 
Q 719 388 719 750 
L 719 3488 
Q 719 3888 631 3984 
Q 509 4122 269 4122 
L 109 4122 
L 109 4238 
L 1653 4238 
Q 2328 4238 2648 4139 
Q 2969 4041 3192 3777 
Q 3416 3513 3416 3147 
Q 3416 2756 3161 2468 
Q 2906 2181 2372 2063 
L 3247 847 
Q 3547 428 3762 290 
Q 3978 153 4325 116 
L 4325 0 
z
M 1316 2178 
Q 1375 2178 1419 2176 
Q 1463 2175 1491 2175 
Q 2097 2175 2405 2437 
Q 2713 2700 2713 3106 
Q 2713 3503 2464 3751 
Q 2216 4000 1806 4000 
Q 1625 4000 1316 3941 
L 1316 2178 
z
" transform="scale(0.015625)"/>
      </defs>
      <use xlink:href="#TimesNewRomanPSMT-52"/>
      <use xlink:href="#TimesNewRomanPSMT-65" x="66.699219"/>
      <use xlink:href="#TimesNewRomanPSMT-74" x="111.083984"/>
      <use xlink:href="#TimesNewRomanPSMT-61" x="138.867188"/>
      <use xlink:href="#TimesNewRomanPSMT-69" x="183.251953"/>
      <use xlink:href="#TimesNewRomanPSMT-6e" x="211.035156"/>
      <use xlink:href="#TimesNewRomanPSMT-65" x="261.035156"/>
      <use xlink:href="#TimesNewRomanPSMT-64" x="305.419922"/>
      <use xlink:href="#TimesNewRomanPSMT-20" x="355.419922"/>
      <use xlink:href="#TimesNewRomanPSMT-53" x="380.419922"/>
      <use xlink:href="#TimesNewRomanPSMT-61" x="436.035156"/>
      <use xlink:href="#TimesNewRomanPSMT-6d" x="480.419922"/>
      <use xlink:href="#TimesNewRomanPSMT-70" x="558.203125"/>
      <use xlink:href="#TimesNewRomanPSMT-6c" x="608.203125"/>
      <use xlink:href="#TimesNewRomanPSMT-65" x="635.986328"/>
      <use xlink:href="#TimesNewRomanPSMT-73" x="680.371094"/>
     </g>
    </g>
   </g>
  </g>
 </g>
 <defs>
  <clipPath id="peab2152088">
   <rect x="50.86625" y="7.2" width="362.95" height="362.95"/>
  </clipPath>
 </defs>
</svg>
